<?xml version="1.0" encoding="UTF-8" standalone="no"?>
<!-- Created with Inkscape (http://www.inkscape.org/) -->

<svg
   xmlns:dc="http://purl.org/dc/elements/1.1/"
   xmlns:cc="http://creativecommons.org/ns#"
   xmlns:rdf="http://www.w3.org/1999/02/22-rdf-syntax-ns#"
   xmlns:svg="http://www.w3.org/2000/svg"
   xmlns="http://www.w3.org/2000/svg"
   xmlns:sodipodi="http://sodipodi.sourceforge.net/DTD/sodipodi-0.dtd"
   xmlns:inkscape="http://www.inkscape.org/namespaces/inkscape"
   id="svg3039"
   version="1.1"
   inkscape:version="0.48.0 r9654"
   width="100"
   height="127"
   sodipodi:docname="dca2.png">
  <metadata
     id="metadata3045">
    <rdf:RDF>
      <cc:Work
         rdf:about="">
        <dc:format>image/svg+xml</dc:format>
        <dc:type
           rdf:resource="http://purl.org/dc/dcmitype/StillImage" />
        <dc:title></dc:title>
      </cc:Work>
    </rdf:RDF>
  </metadata>
  <defs
     id="defs3043" />
  <sodipodi:namedview
     pagecolor="#ffffff"
     bordercolor="#666666"
     borderopacity="1"
     objecttolerance="10"
     gridtolerance="10"
     guidetolerance="10"
     inkscape:pageopacity="0"
     inkscape:pageshadow="2"
     inkscape:window-width="1440"
     inkscape:window-height="823"
     id="namedview3041"
     showgrid="false"
     inkscape:zoom="2.023622"
     inkscape:cx="70.260272"
     inkscape:cy="45.22861"
     inkscape:window-x="0"
     inkscape:window-y="24"
     inkscape:window-maximized="1"
     inkscape:current-layer="svg3039" />
  <g
     id="g3085"
     transform="translate(-30.638129,1.9766534)">
    <path
       style="fill:#fefefe"
       d="m 30.63813,61.029183 0,-63.4999999 50,0 50,0 0,63.4999999 0,63.499997 -50,0 -50,0 0,-63.499997 z"
       id="path3101"
       inkscape:connector-curvature="0" />
    <path
       style="fill:#cfcfcf"
       d="m 91.975667,120.83661 c 0.656291,-4.04425 -0.518271,-4.89034 -3.802006,-2.73875 -4.068227,2.6656 -11.679507,-0.38875 -19.740215,-7.9216 l -3.704683,-3.46208 -0.407972,5.6575 c -0.224385,3.11162 -0.302631,1.74379 -0.17388,-3.03962 0.393464,-14.618214 1.07445,-13.785984 -11.375358,-13.901774 -12.953209,-0.120472 -21.220331,-1.061085 -21.103495,-2.401103 0.04795,-0.55 0.848338,-0.903415 1.778631,-0.785366 0.930292,0.118049 9.228941,0.525899 18.441441,0.906335 14.866505,0.61392 19.318272,1.356274 15.588649,2.599481 -0.680606,0.226869 -1.131394,2.36873 -1.088982,5.174157 0.05378,3.55762 0.673076,5.44197 2.41135,7.33713 2.196919,2.39518 10.569389,8.26895 11.784764,8.26768 0.30482,-3.2e-4 0.605509,-3.0543 0.668197,-6.78662 0.114113,-6.79409 2.064293,-12.517241 4.614982,-13.543503 0.699072,-0.28127 0.284285,-0.546926 -0.92175,-0.590347 -2.963221,-0.106685 -16.30721,-5.107629 -16.30721,-6.111474 0,-0.440444 0.436253,-0.950806 0.969452,-1.13414 0.533198,-0.183333 1.052805,-2.926234 1.154681,-6.095335 l 0.18523,-5.762002 6.595319,0.647072 c 3.627425,0.35589 7.353234,1.036291 8.279577,1.512002 0.926342,0.475712 2.651342,0.86493 3.833333,0.86493 2.92198,0 1.990994,-2.408063 -1.09592,-2.834676 -3.955447,-0.546644 -4.856247,-2.276071 -1.016266,-1.951106 2.025662,0.171425 3.553897,-0.214411 3.819116,-0.964218 0.243179,-0.6875 -0.320208,-1.25 -1.251973,-1.25 -1.371521,0 -1.244573,-0.383582 0.666667,-2.014386 1.298431,-1.107913 1.910784,-1.927271 1.360784,-1.820797 -0.55,0.106475 -2.575,-0.565022 -4.5,-1.492215 l -3.5,-1.685806 4.189644,0.508768 c 4.934451,0.599214 6.660052,-1.055746 2.62053,-2.513254 -1.545596,-0.557669 -3.710174,-1.465446 -4.810174,-2.01728 -1.799315,-0.902659 -1.749144,-0.960545 0.5,-0.576887 1.375,0.234548 5.2,1.097145 8.5,1.916883 8.68673,2.157832 16.75299,3.775319 17.09944,3.428868 0.165,-0.165002 1.02535,-5.184948 1.91188,-11.155436 0.88653,-5.970488 2.72069,-15.76742 4.07591,-21.770961 2.42996,-10.764592 2.44662,-12.818411 0.10375,-12.796213 -1.87277,0.01774 -15.23037,8.248219 -19.097391,11.767124 -3.346497,3.045245 -3.742825,4.074922 -5.006462,13.007001 -0.208445,1.4734 0.370847,2.656915 1.630422,3.33102 2.352468,1.259003 2.881753,0.849868 2.915152,-2.253397 0.05048,-4.690193 1.004498,-10.862986 1.678569,-10.860861 0.3788,0.0012 0.77896,4.081272 0.88925,9.066839 0.11028,4.985566 -0.11472,8.922089 -0.5,8.747828 -7.778939,-3.518361 -15.20052,-8.371864 -15.20052,-9.940706 0,-1.888393 -0.821356,-2.243141 -4.5,-1.943572 -4.456342,0.362901 -7.514373,2.34031 -8.412999,5.440081 l -0.906624,3.127359 -0.09019,-3.690983 c -0.103417,-4.232376 0.260675,-4.555008 7.20877,-6.387881 4.540159,-1.197671 5.324202,-1.167159 6.91109,0.268954 0.984473,0.890937 1.789952,2.209308 1.789952,2.929714 0,1.158388 2.914645,3.380196 4.434259,3.380196 0.311157,0 0.568251,-1.2375 0.571318,-2.75 0.01414,-6.973995 1.871154,-10.109687 9.295464,-15.696035 3.95943,-2.979231 9.65818,-6.555602 12.66389,-7.947491 5.26131,-2.436416 5.56406,-2.466916 8.12548,-0.818591 1.46331,0.941664 3.90328,3.200393 5.42217,5.019397 2.74615,3.288768 2.755,3.347538 1.58196,10.5 -0.64881,3.955996 -3.6355,17.874512 -6.63709,30.930035 -3.55703,15.47139 -5.45745,25.957354 -5.45745,30.112619 0,7.115703 -3.41401,22.406623 -5.47442,24.519223 -1.12903,1.15763 -2.28098,1.06292 -7.45609,-0.61303 -3.36641,-1.09021 -6.347986,-1.61453 -6.625716,-1.16516 -0.27773,0.44938 -0.212975,1.98043 0.1439,3.40233 0.617696,2.4611 0.470425,2.57326 -3.066025,2.3351 -3.601297,-0.24254 -3.698658,-0.3502 -3.184113,-3.52097 z M 110.07014,88.642819 c 0.37671,-4.7375 0.93298,-9.62847 1.23616,-10.868823 0.45144,-1.846859 -0.0571,-2.501742 -2.80846,-3.616907 -4.71243,-1.90999 -9.814438,-2.996378 -7.85971,-1.673596 1.17469,0.794923 1.20362,1.018385 0.13342,1.030377 -0.913041,0.01023 -1.209367,0.837688 -0.892882,2.493275 0.343632,1.797594 -0.03621,2.6398 -1.383423,3.067388 -2.602897,0.826127 -2.313958,1.874178 0.892885,3.238704 l 2.75,1.170138 -2.75,-0.338424 c -1.5125,-0.186133 -2.75,0.04917 -2.75,0.522904 0,0.47373 0.873442,0.861328 1.940983,0.861328 1.067541,0 2.219097,0.45 2.559017,1 0.36058,0.583423 -0.65628,1 -2.440983,1 -2.732241,0 -3.059017,-0.320471 -3.059017,-3 0,-3.514878 -1.527347,-4.000575 -2.358487,-0.75 -0.524991,2.05323 -1.234098,2.271798 -8.108408,2.499257 -6.948621,0.229917 -7.533105,0.09414 -7.533105,-1.75 0,-2.391978 2.247317,-2.609083 4.428571,-0.427828 0.864286,0.864285 1.564538,1.201785 1.556116,0.75 -0.03935,-2.1109 -1.900178,-3.082219 -6.782013,-3.540094 l -5.297327,-0.496845 0.297327,4.973686 0.297326,4.973685 6.5,2.367474 c 7.363722,2.682064 8,2.793466 8,1.400665 0,-0.55 -0.9,-1 -2,-1 -1.1,0 -2,-0.428798 -2,-0.952885 0,-0.55961 2.12822,-0.700829 5.156564,-0.342166 3.776499,0.44727 4.96505,0.300844 4.440983,-0.547115 -0.39357,-0.636809 -2.151523,-1.164725 -3.906564,-1.173147 -1.755041,-0.0084 -3.865983,-0.451531 -4.690983,-0.984687 -1.151026,-0.74385 -0.802052,-0.96976 1.5,-0.971033 4.452098,-0.0025 7.286595,0.972525 7.964695,2.739625 0.331674,0.86433 0.03834,1.920518 -0.651865,2.347085 -0.6902,0.426568 -1.042941,0.93817 -0.78387,1.136896 1.406871,1.079163 10.97754,3.417837 14.09458,3.444132 l 3.62355,0.03057 0.68492,-8.613637 z m -12.43201,5.995689 c -1.537236,-0.425085 -2.623287,-1.543736 -2.820137,-2.90479 -0.393639,-2.721687 1.374765,-3.481443 5.320137,-2.28568 l 3,0.90924 -3.25,0.08595 c -1.7875,0.04727 -3.25,0.487808 -3.25,0.978964 0,1.342083 3.40821,2.382364 3.81426,1.164218 0.60943,-1.828301 2.18574,-1.148396 2.18574,0.942773 0,2.083533 -0.81948,2.265347 -5,1.109325 z m -6,-11.999919 c 0,-0.489827 -1.575,-1.074466 -3.5,-1.299199 -3.41029,-0.398132 -4.756791,0.516 -2.25,1.527512 2.119213,0.855121 5.75,0.710955 5.75,-0.228313 z m -51.5,0.80879 c -1.958126,-0.551653 0.299267,-0.701718 6.5,-0.432103 5.225,0.22719 8.825,0.143285 8,-0.186455 -0.825,-0.329739 -1.725,-0.902555 -2,-1.272924 -0.275,-0.370369 -3.2,-1.090394 -6.5,-1.600056 -4.203981,-0.649275 -6.018218,-1.375663 -6.060862,-2.426658 -0.06093,-1.501648 -2.631319,-7.971106 -4.464364,-11.236431 -1.814175,-3.231714 -0.962155,-8.222724 3.629927,-21.263569 2.517734,-7.15 5.173536,-15.607957 5.901783,-18.795461 1.462944,-6.40324 3.117948,-9.062636 5.15373,-8.281433 1.754901,0.673419 1.701685,-0.562374 -0.128411,-2.981976 -2.003369,-2.648691 -1.987503,-12.3455148 0.0249,-15.2186237 0.856187,-1.2223784 2.491874,-2.2225062 3.634859,-2.2225062 1.925136,0 1.884145,0.1526075 -0.556704,2.0725801 -1.449173,1.1399191 -2.634859,2.8049191 -2.634859,3.7 0,1.2034941 0.292444,1.3349763 1.122669,0.5047506 1.576674,-1.5766741 5.554098,0.3786221 6.259824,3.077321 0.721498,2.7590153 -0.850819,4.3314882 -2.752752,2.7530243 -1.252849,-1.039773 -1.418272,-0.262721 -1.190539,5.5923809 0.359524,9.243503 0.253145,8.868341 3.030689,10.688258 2.285554,1.497552 2.42255,1.494965 1.835575,-0.03467 -0.520836,-1.357278 -0.177273,-1.538291 1.920409,-1.011806 2.28986,0.574718 2.620492,0.29063 3.189067,-2.740136 0.425011,-2.265503 1.318172,-3.560158 2.706574,-3.923233 2.025263,-0.529618 2.031919,-0.610145 0.293645,-3.552809 -1.621773,-2.745442 -1.895035,-2.861673 -3.099328,-1.318287 -1.209973,1.550665 -1.264348,1.532095 -0.648348,-0.221423 0.464781,-1.323053 0.311155,-1.690788 -0.497546,-1.190983 -0.643467,0.397688 -1.169939,0.246508 -1.169939,-0.335951 0,-0.582459 0.465833,-1.059017 1.035184,-1.059017 0.681221,0 0.645918,-0.7273499 -0.103245,-2.1271739 -0.654591,-1.2231128 -0.755405,-2.3918786 -0.237208,-2.75 1.305613,-0.9022984 1.393478,-5.3116148 0.136036,-6.8267396 -0.591611,-0.7128475 -0.660556,-1.2960864 -0.153212,-1.2960864 2.126336,0 3.322445,2.7162698 3.322445,7.5450124 0,3.8750206 0.493679,5.5917855 2,6.9549875 1.135658,1.027756 2,3.079967 2,4.748607 0,2.097628 -0.572378,3.088312 -2,3.461644 -3.071396,0.803188 -2.699481,5.650014 0.547053,7.129234 3.255951,1.483511 3.452947,1.464142 3.452947,-0.339485 0,-1.864993 1.913222,-1.880953 4.348033,-0.03627 1.797378,1.361744 1.797378,1.469653 0,3.936771 -1.016418,1.395157 -2.200493,2.55079 -2.631277,2.568074 -0.430784,0.01728 -3.035156,-1.109705 -5.787493,-2.50442 -2.752337,-1.394715 -5.443108,-2.264615 -5.979492,-1.933112 -0.536384,0.331504 -2.401494,-0.108774 -4.144689,-0.978395 -2.462403,-1.228408 -3.339886,-1.305351 -3.933469,-0.344913 -0.559427,0.905171 -0.912323,0.775091 -1.317818,-0.48576 -1.669177,-5.190155 -1.663789,-5.058152 -0.155362,-3.806268 1.191624,0.98896 1.353294,0.8509 0.924357,-0.78936 -0.311996,-1.193074 -1.080235,-1.772919 -1.921326,-1.450162 -0.770805,0.295786 -1.401464,-0.05035 -1.401464,-0.769196 0,-2.972903 -1.760721,0.957863 -2.953229,6.593011 -0.698345,3.3 -2.384539,8.7 -3.747097,12 -2.667345,6.46008 -6.299674,18.168223 -6.299674,20.305835 0,0.721709 0.480678,1.015124 1.068174,0.652031 0.587495,-0.363092 0.826618,-1.289649 0.531384,-2.059017 -0.752758,-1.961657 0.05684,-1.742449 2.467354,0.668063 1.378214,1.378214 2.46112,1.754839 3.25,1.130323 0.650699,-0.515124 2.839975,-1.47003 4.865059,-2.122013 3.612592,-1.163086 4.276602,-2.906185 2.315706,-6.078981 -0.338641,-0.547933 -0.215194,-0.996241 0.274326,-0.996241 0.489521,0 1.492119,1.125 2.227997,2.5 1.506515,2.814949 3.494564,3.259528 4.37033,0.977319 0.495089,-1.29018 0.893155,-1.213834 2.606989,0.5 1.112474,1.112474 2.472681,2.022681 3.022681,2.022681 1.678552,0 1.115475,5.853326 -0.953141,9.908149 l -1.953141,3.828472 3.664583,-1.86831 c 2.015521,-1.027571 4.244434,-1.868311 4.953141,-1.868311 0.942575,0 1.288558,-2.119303 1.288558,-7.893011 0,-6.093519 0.341978,-8.024241 1.5,-8.468615 0.825,-0.316583 1.5,-1.434627 1.5,-2.484544 0,-1.049918 0.662587,-2.458839 1.472416,-3.130937 2.110967,-1.751947 7.70759,-1.828439 8.307478,-0.113543 0.347492,0.993371 -0.01346,1.215001 -1.222907,0.750891 -4.984015,-1.912545 -9.037911,2.794068 -6.743644,7.829437 0.8459,1.856547 0.7554,2.461833 -0.436466,2.919195 -2.510826,0.963495 -0.66556,2.287111 2.533846,1.817538 2.723217,-0.399683 3.056111,-0.866794 3.622682,-5.083269 1.091435,-8.122568 1.306848,-6.972755 1.387648,7.406858 0.07754,13.799778 -0.537859,16.781621 -3.292908,15.955378 -0.62048,-0.186083 -2.332708,-0.601225 -3.804952,-0.922537 -1.472244,-0.321313 -2.822244,-1.146398 -3,-1.833523 -0.185085,-0.715453 -2.092802,0.570347 -4.464327,3.008953 -4.081258,4.196702 -4.106562,4.266949 -1.75,4.858409 1.315123,0.330075 2.391134,1.230166 2.391134,2.000202 0,1.13032 -0.433499,1.175687 -2.25,0.235464 -5.144077,-2.662577 -5.587792,-2.752721 -6.736536,-1.36857 -0.953414,1.148795 -0.396344,1.462209 3.164722,1.78051 2.376998,0.212465 -1.078186,0.411676 -7.678186,0.442692 -6.6,0.03102 -13.35,-0.323936 -15,-0.788782 z M 61.466661,79.49794 c 3.760299,-1.816779 10.854332,-9.619227 9.74996,-10.723599 -0.239513,-0.239514 -1.705157,-0.152478 -3.256985,0.193413 -3.373369,0.751897 -13.744038,10.068741 -12.838511,11.533914 0.878768,1.421876 1.542371,1.316908 6.345536,-1.003728 z M 80.63813,68.145814 c 0,-5.253339 -0.309797,-6.457438 -1.75,-6.801775 -4.084988,-0.976676 -5.250633,0.138594 -5.234687,5.008468 0.0203,6.199462 0.811054,7.22181 6.234687,8.060675 0.4125,0.0638 0.75,-2.756515 0.75,-6.267368 z m -2.592752,1.607037 c -0.601013,-0.398018 -1.377263,-2.186168 -1.725,-3.973668 -0.480123,-2.468019 -0.281933,-3.25 0.8237,-3.25 1.533796,0 2.906412,3.762866 2.332608,6.394573 -0.188669,0.865319 -0.822342,1.232378 -1.431308,0.829095 z M 72.362861,59.297092 c -0.222561,-1.79735 -0.409249,-0.567909 -0.414862,2.732091 -0.0056,3.3 0.176483,4.770559 0.404657,3.267909 0.228174,-1.50265 0.232767,-4.20265 0.0102,-6 z M 85.63813,71.529183 c -1.281897,-0.828426 -1.245547,-0.971601 0.25,-0.984687 0.9625,-0.0084 1.75,0.434687 1.75,0.984687 0,1.21961 -0.112787,1.21961 -2,0 z m 12.5,-9.730851 c -4.747913,-1.184244 -12.5,-4.48785 -12.5,-5.326963 0,-0.88701 8.416033,1.794044 14.5,4.619194 2.93575,1.363244 1.98164,1.700887 -2,0.707769 z m -1.375781,-4.268291 c -1.856679,-1.036394 -5.231679,-2.644115 -7.5,-3.572712 -2.26832,-0.928597 -3.591735,-1.882305 -2.940921,-2.119351 1.234049,-0.449479 16.316702,6.137701 16.316702,7.126137 0,1.061443 -2.49681,0.452058 -5.875781,-1.434074 z M 78.367297,55.925016 c -0.401042,-0.401041 -0.729167,-1.419166 -0.729167,-2.2625 0,-1.125593 0.295833,-1.2375 1.1125,-0.420833 0.611875,0.611875 0.94,1.63 0.729167,2.2625 -0.210834,0.6325 -0.711459,0.821875 -1.1125,0.420833 z m 31.215993,-2.895833 c -0.3631,-5.595706 0.0952,-20.644162 0.69293,-22.75 0.27318,-0.9625 0.80386,-1.750238 1.1793,-1.750528 0.96081,-7.43e-4 0.36426,20.764865 -0.71821,25.000528 l -0.89446,3.5 -0.25956,-4 z M 92.192056,51.732604 c -3.82034,-1.964988 -6.419697,-3.748164 -5.776349,-3.962613 0.949091,-0.316364 13.621973,5.83106 15.139093,7.343743 1.42659,1.422425 -3.441658,-0.335626 -9.362744,-3.38113 z M 58.63813,50.060568 c 0,-0.919559 -0.583093,-1.244862 -1.559655,-0.87012 -1.051033,0.40332 -1.747625,-0.120301 -2.136051,-1.605646 -0.448438,-1.714828 -1.087581,-2.075843 -2.87906,-1.62621 -2.615206,0.656375 -2.920276,0.328364 -3.887092,-4.179409 -0.448254,-2.089978 -0.311763,-3.25 0.382403,-3.25 0.5937,0 1.079455,1.05 1.079455,2.333333 0,2.99185 0.635053,3.574864 3.171464,2.911577 1.780561,-0.465627 1.989985,-1.120185 1.564932,-4.891238 -0.269897,-2.394519 -0.157955,-4.353672 0.24876,-4.353672 0.406715,0 1.030892,2.479455 1.387062,5.509899 0.411144,3.4982 1.374178,6.236497 2.637681,7.5 2.144284,2.144284 2.602304,3.990101 0.990101,3.990101 -0.55,0 -1,-0.660877 -1,-1.468615 z M 53.335047,32.136055 c -0.409197,-1.041221 -0.508402,-2.128721 -0.220456,-2.416667 0.91206,-0.91206 1.714561,0.582564 1.332392,2.481526 -0.350243,1.740325 -0.403729,1.737205 -1.111936,-0.06486 z M 75.63813,24.362516 c 0,-0.458333 1.076855,-0.833333 2.393011,-0.833333 1.316156,0 2.652033,-0.675 2.968615,-1.5 0.316583,-0.825 1.299254,-1.5 2.183714,-1.5 1.131778,0 0.770816,0.696093 -1.218615,2.350024 -2.767952,2.301162 -6.326725,3.135522 -6.326725,1.483309 z m 2.854126,-3.885696 c 1.84477,-1.124687 3.86977,-1.833531 4.5,-1.575209 0.630231,0.258323 0.413474,0.505204 -0.481681,0.548625 -0.895156,0.04342 -2.187756,0.753947 -2.872445,1.578947 -0.684689,0.825 -1.977289,1.498318 -2.872445,1.496262 -0.943917,-0.0022 -0.218688,-0.862672 1.726571,-2.048625 z"
       id="path3099"
       inkscape:connector-curvature="0" />
    <path
       style="fill:#b2b2b2"
       d="m 91.989468,121.2975 c 0.64153,-4.63076 -0.272156,-5.25059 -4.657325,-3.15945 -3.377417,1.61058 -3.555831,1.58192 -9.318678,-1.49719 -3.231434,-1.72656 -7.541157,-4.7159 -9.577163,-6.64297 l -3.701827,-3.50377 -0.377848,5.76753 c -0.207817,3.17214 -0.273204,0.75386 -0.145304,-5.37395 L 64.443867,95.746222 49.290998,95.066405 c -15.507572,-0.69573 -19.008673,-1.152501 -18.249469,-2.380918 0.237842,-0.384837 4.181876,-0.388221 8.764521,-0.0075 4.582644,0.3807 13.05708,0.741649 18.83208,0.802108 7.199032,0.07537 9.985308,0.410515 8.862823,1.066068 -1.271832,0.742774 -1.56435,2.177515 -1.310829,6.429337 0.28154,4.72171 0.780931,5.88408 3.637177,8.4658 1.820956,1.64594 5.495761,4.19295 8.166234,5.66004 l 4.855404,2.66742 -0.855404,-2.36978 c -1.963698,-5.44015 0.90761,-18.840869 4.046469,-18.885332 0.603969,-0.0086 -2.951874,-1.411002 -7.901874,-3.116547 -9.613277,-3.312299 -10.710863,-3.887828 -8.75,-4.588136 0.690287,-0.246531 1.320346,-2.312139 1.407104,-4.613095 l 0.157103,-4.166667 0.592897,4.905124 0.592896,4.905124 6.406722,2.389909 c 3.868636,1.443123 7.43942,2.163091 9.013492,1.817367 1.464896,-0.321745 5.108805,0.288283 8.318635,1.392627 3.141526,1.080843 7.463191,1.941 9.603691,1.911459 l 3.89183,-0.05371 0.62188,-6.633949 c 0.34203,-3.648672 0.8876,-8.516382 1.21236,-10.817133 0.54324,-3.848427 0.36406,-4.298928 -2.23906,-5.629561 -4.42927,-2.264104 -8.975541,-3.002524 -9.112655,-1.480104 -0.368066,4.086742 -0.91063,5.406469 -2.639563,6.420442 -1.811957,1.062664 -1.754375,1.215798 1,2.659406 l 2.922668,1.53181 -2.749294,-0.159405 c -1.512111,-0.08767 -2.749611,-0.706073 -2.75,-1.374222 -3.88e-4,-0.668149 -0.915036,-1.704151 -2.03255,-2.302226 -1.117514,-0.598076 -1.964196,-1.626408 -1.881517,-2.285184 0.387804,-3.089954 -0.234059,-4.703475 -1.836639,-4.765454 -1.393287,-0.05389 -1.29137,-0.28887 0.5,-1.152815 3.137956,-1.513379 2.818004,-2.436943 -1.317002,-3.801618 -1.961851,-0.647469 -3.334822,-1.409396 -3.051047,-1.693172 0.283776,-0.283775 1.854385,-0.04938 3.490243,0.520887 2.436143,0.849244 3.084771,0.74893 3.584917,-0.55443 0.335845,-0.8752 0.03289,-2.001148 -0.673241,-2.502106 -0.817457,-0.579939 -0.194009,-0.667998 1.71613,-0.242394 1.65,0.367641 5.475,1.123742 8.5,1.680225 3.025,0.556482 6.64107,1.229004 8.03571,1.494493 1.95453,0.372071 2.5492,0.0628 2.59455,-1.349341 0.0536,-1.669768 0.52598,-5.582546 1.85642,-15.377314 0.26486,-1.949897 1.61371,-8.560605 2.99744,-14.690463 1.38373,-6.129859 2.51588,-11.846989 2.51588,-12.704735 0,-2.435932 -2.77945,-1.863048 -9.91695,2.044026 -9.84535,5.389347 -14.915238,9.867275 -15.49033,13.681673 -1.546243,10.255737 -1.533394,10.420765 0.897622,11.52841 2.046275,0.932345 2.399382,0.761865 2.947798,-1.423199 0.342677,-1.365333 0.347517,-2.928244 0.01076,-3.473134 -0.74348,-1.202975 0.45857,-8.918193 1.389,-8.915142 0.36416,0.0012 0.75143,4.051194 0.86061,9 0.19771,8.962 -0.18269,10.123429 -2.537641,7.747829 -0.681524,-0.6875 -3.584024,-2.375 -6.45,-3.75 -3.292575,-1.579668 -5.698788,-3.528364 -6.536261,-5.293458 -0.879366,-1.85339 -1.888941,-2.635695 -3,-2.324657 -0.921033,0.257841 -3.177602,0.772046 -5.014598,1.142679 -2.473519,0.499058 -3.695629,1.491266 -4.710858,3.824657 l -1.370868,3.150779 -0.03914,-2.726947 c -0.05163,-3.597323 3.220583,-5.676733 9.459322,-6.011153 4.276286,-0.229225 5.037725,0.03566 6.103252,2.12319 2.345448,4.595085 5.398284,5.363235 5.398284,1.358308 0,-3.755114 1.579271,-8.9764 3.180847,-10.516313 6.669601,-6.412817 20.590431,-14.754236 24.540631,-14.704849 3.67343,0.04593 10.83564,8.526184 9.9044,11.727078 -0.28013,0.962877 -0.7695,3.509859 -1.08747,5.659959 -0.50829,3.436893 -1.71823,9.232381 -4.50757,21.590727 -0.43449,1.925 -1.53011,6.95236 -2.43473,11.17191 -0.90463,4.219551 -2.24291,9.659368 -2.97396,12.088481 -0.73106,2.429114 -1.42514,8.40581 -1.5424,13.281548 -0.11726,4.875741 -0.43932,9.230838 -0.71569,9.678008 -0.27637,0.44717 -0.71167,2.04312 -0.96735,3.54655 -0.86905,5.11022 -3.41947,13.12953 -4.36064,13.71121 -0.51571,0.31873 -3.53568,-0.29758 -6.71103,-1.36958 -3.17536,-1.07199 -6.148845,-1.71702 -6.607752,-1.4334 -0.458908,0.28362 -0.547277,1.82283 -0.196377,3.42047 0.539965,2.45844 0.327538,2.9048 -1.382437,2.9048 -1.111241,0 -2.328246,-0.49804 -2.704455,-1.10676 -0.478097,-0.77358 -0.972363,-0.69832 -1.641835,0.25 -0.651236,0.92248 -0.792343,0.16231 -0.440844,-2.37492 z m 4.377829,-5.37249 c -0.332292,-0.33229 -1.194792,-0.36781 -1.916667,-0.0789 -0.797733,0.31922 -0.560776,0.55618 0.604167,0.60416 1.054166,0.0434 1.644791,-0.19292 1.3125,-0.52522 z M 97.88813,94.282435 c -3.3185,-1.064547 -3.891523,-2.192175 -2.350341,-4.625137 0.672055,-1.060929 1.51857,-1.135489 3.734687,-0.328947 l 2.865654,1.042937 -2.833333,0.07895 c -1.8133,0.05052 -2.674011,0.528962 -2.390786,1.328947 0.243401,0.6875 1.630901,1.165281 3.083333,1.061736 1.717586,-0.12245 2.640786,0.314543 2.640786,1.249998 0,1.626583 -0.24561,1.636485 -4.75,0.191516 z m -14.25,-2.529678 c 0,-0.427034 1.8,-0.604768 4,-0.394964 2.2,0.209803 4,0.559195 4,0.776425 0,0.217231 -1.8,0.394965 -4,0.394965 -2.2,0 -4,-0.349392 -4,-0.776426 z m 1.5,-3.223574 c -1.818072,-0.781252 -1.77259,-0.856756 0.5,-0.830035 1.375,0.01617 3.625,0.389683 5,0.830035 2.437834,0.780731 2.425401,0.801371 -0.5,0.830035 -1.65,0.01617 -3.9,-0.357349 -5,-0.830035 z m 11.5,-3 c -1.219476,-0.788086 -1.090251,-0.972238 0.690983,-0.984687 1.205041,-0.0084 2.469098,0.434687 2.809017,0.984687 0.78687,1.273187 -1.529884,1.273187 -3.5,0 z M 78.646489,84.555511 c -1.063309,-0.672246 -1.183115,-1.251572 -0.417217,-2.01747 1.357289,-1.357289 4.408858,-0.251152 4.408858,1.598131 0,1.600595 -1.820681,1.791865 -3.991641,0.419339 z M 43.13813,83.495538 c -3.3,-0.383586 0.3,-0.472935 8,-0.198552 7.7,0.274383 14.1875,0.663875 14.416667,0.865538 0.667907,0.587746 -15.850458,0.09626 -22.416667,-0.666986 z m 41,0.03365 c -0.710726,-1.149979 0.909188,-1.149979 4.5,0 2.38749,0.764608 2.356393,0.805126 -0.690983,0.90032 -1.755041,0.05482 -3.469098,-0.35032 -3.809017,-0.90032 z m -18,-1 c -0.339919,-0.55 0.08352,-1 0.940983,-1 0.857459,0 1.559017,0.45 1.559017,1 0,0.55 -0.423442,1 -0.940983,1 -0.517541,0 -1.219098,-0.45 -1.559017,-1 z M 53.19603,81.622867 C 52.887956,81.124394 50.477378,80.419679 47.839189,80.056836 45.201,79.693992 42.594772,79.089334 42.047572,78.713151 c -0.547201,-0.376182 -2.483657,-4.136408 -4.303237,-8.356057 -2.783433,-6.454847 -3.195399,-8.358749 -2.596562,-12 0.842116,-5.12051 9.29808,-28.591044 10.588004,-29.38826 0.49146,-0.303739 -0.51617,3.185582 -2.239179,7.754048 -3.859978,10.234526 -6.880904,20.592855 -6.790788,23.284659 0.06471,1.932806 0.114194,1.925393 1.126203,-0.16872 0.937502,-1.939936 1.301337,-2.040066 3.18232,-0.875789 1.817672,1.125089 2.857387,1.008388 7.213201,-0.809638 3.221585,-1.344622 4.92491,-2.611012 4.641192,-3.450637 -0.372344,-1.101901 -0.08094,-1.101901 1.721499,0 1.894804,1.158364 2.352051,1.080479 3.608809,-0.614704 1.035611,-1.396888 1.439096,-1.533466 1.439096,-0.487128 0,0.799701 1.0125,1.898209 2.25,2.44113 3.017653,1.323916 3.293079,4.470982 0.870581,9.94744 -2.118769,4.789829 -1.848699,5.404983 1.320549,3.007885 1.067621,-0.807509 2.642621,-1.45018 3.5,-1.428159 0.91958,0.02362 0.436014,0.649288 -1.179148,1.525659 -4.20319,2.280609 -12.179802,10.423018 -11.158642,11.390579 0.493163,0.467277 1.79666,1.066073 2.89666,1.330658 1.317503,0.316901 0.911082,0.520649 -1.190983,0.597065 -1.755041,0.0638 -3.443043,-0.291841 -3.751117,-0.790315 z m 8.671267,-1.281184 c 0.604366,-1.8131 2.4375,-2.069007 2.4375,-0.340278 0,0.840278 -0.6375,1.527778 -1.416667,1.527778 -0.779167,0 -1.238542,-0.534375 -1.020833,-1.1875 z m 18.992551,0.0078 c -0.946945,-0.373843 -3.361073,-0.711343 -5.364729,-0.75 -2.293259,-0.04424 -3.859921,-0.635542 -4.228455,-1.595927 -0.503708,-1.312642 0.353939,-1.433398 6.143011,-0.86493 3.70065,0.363392 7.486371,1.049931 8.412714,1.525642 0.926342,0.475697 2.812284,0.864915 4.190983,0.864915 1.378698,0 2.729687,0.360761 3.002197,0.801692 0.59692,0.965837 -9.716393,0.981612 -12.155721,0.01859 z m -13.803722,-3.8203 c 0.877696,-1.375 2.36312,-3.579136 3.300943,-4.89808 1.105081,-1.554174 1.754835,-4.545404 1.846368,-8.5 0.12729,-5.499461 0.101428,-5.583573 -0.26194,-0.85192 -0.647107,8.426402 -1.835402,6.045124 -1.470939,-2.947681 0.233743,-5.767405 0.76982,-8.522208 1.805812,-9.279744 0.810362,-0.592551 1.573423,-1.740038 1.695693,-2.54997 0.122269,-0.809933 0.573711,-2.035105 1.003204,-2.722605 0.967345,-1.548452 8.662863,-1.675494 8.662863,-0.143011 0,0.608844 -0.710758,0.834245 -1.579463,0.500892 -4.900485,-1.880493 -8.8648,2.926891 -6.568892,7.965861 0.913354,2.004592 0.834032,2.426258 -0.456417,2.426258 -2.874516,0 -0.842928,2.277299 2.342707,2.626048 3.059763,0.334969 3.16066,0.217346 3.766576,-4.39093 1.144502,-8.704483 1.293875,-7.82137 1.14424,6.764882 l -0.148751,14.5 -3.191039,0.308961 c -2.146375,0.207815 -3.83345,-0.33345 -5.153351,-1.653351 -1.949749,-1.949749 -1.982706,-1.938923 -5.147868,1.691039 -1.752055,2.009343 -2.467441,2.528351 -1.589746,1.153351 z m 13.582004,-8.75 0,-6.75 -3.5,0 -3.5,0 0.01531,5 c 0.02004,6.54399 0.75849,7.537003 6.23469,8.383999 0.4125,0.0638 0.75,-2.921499 0.75,-6.633999 z m -4.5,-4.25 c -0.339919,-0.55 -0.168034,-1 0.381966,-1 0.55,0 1.278115,0.45 1.618034,1 0.339919,0.55 0.168034,1 -0.381966,1 -0.55,0 -1.278115,-0.45 -1.618034,-1 z m 9.5,12.09362 c 0,-0.49851 0.9,-0.671025 2,-0.383369 1.1,0.287656 2,0.695528 2,0.90638 0,0.210853 -0.9,0.383369 -2,0.383369 -1.1,0 -2,-0.407871 -2,-0.90638 z m 0.5,-14.09362 c -0.339919,-0.55 -0.168034,-1 0.381966,-1 0.55,0 1.278115,0.45 1.618034,1 0.339919,0.55 0.168034,1 -0.381966,1 -0.55,0 -1.278115,-0.45 -1.618034,-1 z m 5,-2.245614 c -3.3,-1.148246 -5.499432,-2.254575 -4.887627,-2.45851 1.139233,-0.379745 12.387627,3.502987 12.387627,4.275973 0,0.676101 -1.099032,0.409774 -7.5,-1.817463 z m 2,-3.815175 c -9.772099,-4.621153 -9.259962,-5.142421 0.741199,-0.754414 8.013621,3.515975 8.273931,3.657615 7.675471,4.176379 -0.22917,0.198647 -4.01667,-1.341237 -8.41667,-3.421965 z m -14.770833,0.456622 c -0.401042,-0.401041 -0.729167,-1.419166 -0.729167,-2.2625 0,-1.125593 0.295833,-1.2375 1.1125,-0.420833 0.611875,0.611875 0.94,1.63 0.729167,2.2625 -0.210834,0.6325 -0.711459,0.821875 -1.1125,0.420833 z m 31.068533,-4.395833 c -0.31635,-3.025 -0.32791,-5.91158 -0.0257,-6.414623 0.30222,-0.503042 0.45321,-3.653042 0.33552,-7 -0.13244,-3.766539 0.28597,-6.76379 1.09804,-7.86575 1.11165,-1.508495 1.25642,-0.51589 0.94797,6.5 -0.20022,4.554205 -0.78546,8.799112 -1.30053,9.433127 -0.59118,0.727701 -0.55554,1.280794 0.0967,1.5 0.66826,0.224607 0.74885,1.936544 0.22818,4.847246 l -0.80498,4.5 -0.57518,-5.5 z m -11.35657,2.444834 c -1.830306,-1.466378 -1.798398,-1.487191 0.55887,-0.364546 3.06103,1.457812 3.62834,1.919712 2.3578,1.919712 -0.53655,0 -1.849049,-0.699825 -2.91667,-1.555166 z m -39.731958,-4.44896 c -0.374346,-1.431502 -1.02872,-1.810482 -2.29024,-1.326392 -1.400929,0.537587 -1.62314,0.30506 -1.07458,-1.124465 0.598449,-1.559535 0.285201,-1.720928 -2.326391,-1.198609 -3.697454,0.739491 -4.051712,-0.870137 -0.393575,-1.788271 2.445589,-0.613804 2.590216,-0.961836 2.122837,-5.108408 -0.275852,-2.447351 -0.16495,-4.449729 0.246448,-4.449729 0.411398,0 1.043335,2.61045 1.404305,5.800999 0.446705,3.948348 1.286375,6.340479 2.629166,7.490212 2.048963,1.754377 2.623088,3.708789 1.089489,3.708789 -0.485852,0 -1.119209,-0.901857 -1.407459,-2.004126 z m 30.95242,0.38583 c -1.561124,-0.846022 -2.592489,-1.78414 -2.291922,-2.084707 0.300567,-0.300568 2.027851,0.402068 3.838408,1.561412 3.793651,2.429167 2.671187,2.808982 -1.546486,0.523295 z M 48.407287,41.572853 c -0.691177,-2.461125 -0.277711,-3.885557 0.811646,-2.7962 0.319441,0.319441 0.422713,1.631941 0.229493,2.916666 l -0.351309,2.335864 -0.68983,-2.45633 z M 68.289669,30.913416 c -2.666653,-1.387455 -5.529888,-2.261156 -6.362744,-1.941559 -0.832857,0.319596 -3.002747,-0.338835 -4.821978,-1.463182 -3.104933,-1.918954 -3.330941,-1.935008 -3.686929,-0.26188 -0.271544,1.276247 -0.537083,1.01007 -0.935104,-0.93735 -0.305729,-1.495855 -0.170876,-2.481798 0.299673,-2.190983 0.470549,0.290815 0.855543,0.07265 0.855543,-0.484807 0,-0.55746 1.226457,0.203483 2.72546,1.690983 2.348692,2.330668 2.773451,2.463133 3.072616,0.958224 0.269431,-1.355342 0.754686,-1.528217 2.167405,-0.772153 1.557688,0.833649 1.912836,0.480637 2.462124,-2.447317 0.405678,-2.162453 1.365047,-3.651012 2.607135,-4.045235 1.080893,-0.343062 1.96526,-1.059257 1.96526,-1.591545 0,-1.82317 -3.229067,-5.897429 -4.674027,-5.897429 -0.794204,0 -1.153709,-0.469712 -0.7989,-1.043805 0.354809,-0.5740929 0.04387,-1.7722719 -0.690983,-2.6626209 -1.049197,-1.2712144 -1.067682,-1.7091546 -0.08609,-2.0395287 1.593714,-0.5363958 1.628722,-5.4753231 0.05,-7.0540453 -0.666667,-0.6666667 -0.755556,-1.2 -0.2,-1.2 2.174837,0 3.4,2.6277111 3.4,7.2922707 0,3.3780743 0.619016,5.6792212 2,7.4348582 2.54925,3.240847 2.6013,6.947251 0.108671,7.73838 -1.123325,0.35653 -2.065376,1.786144 -2.319947,3.520648 -0.364539,2.483762 0.0205,3.106393 2.575465,4.164695 2.317912,0.96011 3.095265,0.970787 3.40328,0.04674 0.461378,-1.384133 2.162952,-1.528249 4.033701,-0.341638 1.039784,0.659533 1.05776,1.359554 0.08949,3.484688 -0.666427,1.462647 -1.476953,2.638405 -1.80117,2.612797 -0.324217,-0.02561 -2.771292,-1.181752 -5.437946,-2.569206 z m -22.55785,-5.384233 c -0.09283,-3.614414 2.209393,-7.55339 4.211797,-7.206163 2.05396,0.356166 2.153874,-0.691116 0.316865,-3.321331 -2.135941,-3.058223 -1.806254,-13.2886026 0.502649,-15.5975059 1.03125,-1.03125 2.6625,-1.8683662 3.625,-1.8602582 1.27974,0.01078 1.0782,0.3534068 -0.75,1.2750318 -1.375,0.6931595 -2.650343,2.3114717 -2.834096,3.5962492 -0.22199,1.5521306 0.04874,2.0993521 0.806836,1.6308249 2.174723,-1.3440527 5.773316,0.3743975 6.274524,2.9962981 0.543475,2.8430082 -1.022104,4.4692051 -2.304694,2.3939302 -1.340964,-2.1697245 -1.857628,-0.714801 -2.052506,5.7798419 -0.179615,5.985958 -0.758994,6.775738 -3.647127,4.97158 -0.743451,-0.464419 -1.426096,-0.24864 -1.670772,0.52812 -2.219714,7.046818 -2.411548,7.419374 -2.478476,4.813382 z M 53.765685,5.7791831 c 1.243871,-1.5860556 1.208501,-1.6214259 -0.377555,-0.3775553 -1.665748,1.3063698 -2.195479,2.1275553 -1.372445,2.1275553 0.207656,0 0.995156,-0.7875 1.75,-1.75 z"
       id="path3097"
       inkscape:connector-curvature="0" />
    <path
       style="fill:#898989"
       d="m 92.261233,120.77918 c 0.625374,-4.80889 -0.750177,-5.52329 -5.120819,-2.65954 -2.270785,1.48788 -2.768391,1.43141 -7.714816,-0.87539 -5.252338,-2.44946 -13.787468,-9.08929 -13.787468,-10.72584 0,-0.47021 1.6875,0.73821 3.75,2.68537 2.0625,1.94717 5.775,4.56752 8.25,5.82301 l 4.5,2.28271 0,-7.80638 c 0,-6.50507 0.371528,-8.3089 2.228752,-10.820927 2.032347,-2.748893 2.076408,-3.061944 0.5,-3.552403 -0.950814,-0.295822 1.306261,-0.34414 5.015721,-0.107374 3.709461,0.236766 7.698639,0.941138 8.864841,1.56527 1.166201,0.624132 3.407706,0.945847 4.981116,0.714917 1.57342,-0.230928 3.01122,0.03154 3.19513,0.58327 0.18391,0.55172 1.09489,0.71129 2.02441,0.3546 1.3428,-0.51527 1.69003,-1.961787 1.69003,-7.040334 0,-3.515497 0.28064,-8.439293 0.62364,-10.941768 0.58687,-4.281651 0.45215,-4.638635 -2.28455,-6.05384 -3.15283,-1.630392 -11.53599,-3.350864 -9.746014,-2.00017 0.781074,0.589386 0.708892,1.752499 -0.252867,4.074822 -1.010359,2.439674 -1.968558,3.25 -3.843077,3.25 -1.373423,0 -2.497132,0.352034 -2.497132,0.782298 0,1.207488 -20.395045,-0.80346 -21.189741,-2.089306 -1.194069,-1.932044 -2.304547,-1.992941 17.302334,0.948844 l 3.612593,0.542027 0.511661,-7.841931 c 0.33938,-5.201479 0.133114,-8.123673 -0.612593,-8.678679 -0.643229,-0.478735 -0.0546,-0.571303 1.375746,-0.21635 2.218002,0.550415 6.37921,1.354405 16.54056,3.195807 l 3.04055,0.550998 1.22995,-9.855385 c 0.67648,-5.420462 2.34573,-14.793337 3.70945,-20.828612 2.7802,-12.304058 3.05537,-16.08639 1.22949,-16.900136 -0.6875,-0.306401 -0.17174,-0.456401 1.14613,-0.333334 1.44418,0.134862 3.93272,2.04063 6.26379,4.796924 l 3.86765,4.573164 -2.04831,10.217604 c -1.12658,5.619682 -4.06654,18.861758 -6.53326,29.426835 -2.58859,11.087044 -4.87948,23.860333 -5.41803,30.209232 -0.7829,9.229477 -2.97445,19.906987 -4.65808,22.694687 -0.23076,0.38209 -2.54589,0.0397 -5.14473,-0.76095 -9.646833,-2.97184 -9.22516,-2.99837 -9.22516,0.5803 0,2.90888 -0.16861,3.09408 -1.691958,1.8584 -1.149661,-0.93255 -1.45126,-0.9718 -0.940983,-0.12244 0.413036,0.6875 0.274417,1.25 -0.308042,1.25 -0.582459,0 -1.103873,-0.7875 -1.158697,-1.75 -0.06828,-1.19866 -0.372234,-0.96238 -0.964795,0.75 -0.635193,1.83557 -0.718225,1.37047 -0.312422,-1.75 z m 2.876897,-1.25 c -0.339919,-0.55 -0.141476,-1 0.440983,-1 0.582459,0 1.059017,-0.675 1.059017,-1.5 0,-0.825 -0.61875,-1.5 -1.375,-1.5 -0.8,0 -1.375,1.04545 -1.375,2.5 0,1.375 0.420308,2.5 0.934017,2.5 0.513709,0 0.655902,-0.45 0.315983,-1 z m -31.179926,-8 c 0,-3.575 0.181495,-5.0375 0.403322,-3.25 0.221826,1.7875 0.221826,4.7125 0,6.5 -0.221827,1.7875 -0.403322,0.325 -0.403322,-3.25 z m 0.821831,-12.146037 -0.141905,-3.646041 -14.75,-0.657823 c -8.1125,-0.361803 -15.65,-1.043319 -16.75,-1.51448 -2.244423,-0.96135 29.102139,-0.105157 31.5,0.860383 1.136853,0.457774 1.352782,1.572393 0.891905,4.604001 l -0.608094,3.999997 -0.141906,-3.646037 z m 8.858095,-7.85396 c -0.825,-0.533156 -1.05,-0.969374 -0.5,-0.969374 0.55,0 1.675,0.436218 2.5,0.969374 0.825,0.533156 1.05,0.969374 0.5,0.969374 -0.55,0 -1.675,-0.436218 -2.5,-0.969374 z m 10,0.09362 c 0,-0.49851 0.9,-0.671025 2,-0.383369 1.1,0.287656 2,0.695528 2,0.90638 0,0.210853 -0.9,0.383369 -2,0.383369 -1.1,0 -2,-0.407871 -2,-0.90638 z M 69.042638,89.374675 c -0.429148,-0.694377 -0.27563,-0.883875 0.38519,-0.475466 0.723305,0.447027 1.227032,-0.952328 1.474261,-4.095491 l 0.375545,-4.774535 0.180248,5.25 c 0.170427,4.963961 -0.83003,6.660421 -2.415244,4.095492 z m 27.595492,0.29318 c 0,-0.473731 1.125,-0.646271 2.5,-0.383423 1.375,0.262848 2.5,0.650446 2.5,0.861328 0,0.210883 -1.125,0.383423 -2.5,0.383423 -1.375,0 -2.5,-0.387598 -2.5,-0.861328 z m -11.5,-1.138672 c -1.82305,-0.783391 -1.778812,-0.859429 0.5,-0.859429 1.375,0 3.4,0.386743 4.5,0.859429 1.82305,0.783391 1.778812,0.859429 -0.5,0.859429 -1.375,0 -3.4,-0.386743 -4.5,-0.859429 z m 12,-3 c -1.928236,-0.828591 -1.921383,-0.861951 0.190983,-0.929715 1.205041,-0.03866 2.469098,0.379715 2.809017,0.929715 0.731,1.182783 -0.247516,1.182783 -3,0 z M 79.443556,84.850532 c -0.932016,-0.245657 -1.465454,-1.043728 -1.185417,-1.773491 0.649738,-1.693191 4.379991,-0.782962 4.379991,1.068773 0,1.417782 -0.266326,1.476533 -3.194574,0.704718 z M 53.38813,83.796978 c 2.3375,-0.210535 6.1625,-0.210535 8.5,0 2.3375,0.210535 0.425,0.382791 -4.25,0.382791 -4.675,0 -6.5875,-0.172256 -4.25,-0.382791 z M 85.227409,83.67364 c -0.290815,-0.470549 0.582628,-0.643089 1.940983,-0.383423 1.358356,0.259666 2.469738,0.644661 2.469738,0.855543 0,0.77375 -3.898641,0.356443 -4.410721,-0.47212 z M 39.907162,82.836192 c 0.972967,-0.253543 2.322967,-0.236869 3,0.03705 0.677032,0.273923 -0.119032,0.481368 -1.769032,0.460988 -1.65,-0.02038 -2.203936,-0.244498 -1.230968,-0.498042 z M 66.63813,82.529183 c -1.281897,-0.828426 -1.245547,-0.971601 0.25,-0.984687 0.9625,-0.0084 1.75,0.434687 1.75,0.984687 0,1.21961 -0.112787,1.21961 -2,0 z m 29,-0.559017 c 0,-0.857459 0.45734,-1.276365 1.016312,-0.930902 0.558971,0.345464 0.757414,1.047021 0.440983,1.559017 -0.85724,1.387044 -1.457295,1.128411 -1.457295,-0.628115 z M 53.209444,81.644571 C 52.908747,81.158034 50.574658,80.446834 48.022578,80.064126 42.076991,79.17253 40.63813,78.596791 40.63813,77.109348 c 0,-0.663222 -1.125,-3.537871 -2.5,-6.388109 -2.983288,-6.184059 -3.020127,-6.987788 -0.461083,-10.059814 1.614277,-1.937873 2.241968,-2.144017 3.457255,-1.135419 1.197162,0.993556 2.356537,0.82261 5.983454,-0.882242 2.474218,-1.16302 5.001626,-2.114581 5.616464,-2.114581 0.639717,0 0.839843,-0.724572 0.467864,-1.693933 -0.610873,-1.591911 -0.537289,-1.591911 1.221752,0 2.458441,2.224858 3.099594,2.139629 4.183132,-0.556067 0.692921,-1.723896 0.919211,-1.840808 0.967776,-0.5 0.03486,0.9625 0.748033,1.75 1.584825,1.75 0.836791,0 2.042462,1.143522 2.679268,2.54116 0.966932,2.122183 0.790978,3.296253 -1.067188,7.120917 -1.22376,2.518867 -2.018474,4.786301 -1.766032,5.038743 0.252442,0.252442 1.60861,-0.294277 3.013706,-1.214932 1.405096,-0.920654 3.13164,-1.442137 3.836764,-1.15885 0.850975,0.341884 0.731962,0.541612 -0.353959,0.594015 -0.899801,0.04342 -4.181544,2.466995 -7.292763,5.38572 -4.066256,3.814673 -5.474072,5.782856 -5.00701,7 0.664347,1.73126 -1.004258,2.408289 -1.992911,0.808615 z m 4.241186,0.201498 c 0.721875,-0.288871 1.584375,-0.253344 1.916667,0.07895 0.332291,0.332292 -0.258334,0.568641 -1.3125,0.52522 -1.164943,-0.04798 -1.4019,-0.284941 -0.604167,-0.604167 z m 4.1875,-1.375903 c 0,-0.582459 0.45,-0.780902 1,-0.440983 0.55,0.339919 1,0.816476 1,1.059017 0,0.242541 -0.45,0.440983 -1,0.440983 -0.55,0 -1,-0.476558 -1,-1.059017 z m 6,-4.507705 c 0,-0.311697 1.125,-2.041673 2.5,-3.844391 2.140631,-2.806512 2.5,-4.330229 2.5,-10.599945 0,-4.027251 0.282855,-7.03942 0.628567,-6.693708 0.345712,0.345712 0.55279,4.475036 0.460174,9.176275 -0.166259,8.439361 -0.134013,8.56078 2.543882,9.578914 1.491751,0.567163 3.309672,0.801962 4.039826,0.521776 0.730153,-0.280186 1.327551,-0.07355 1.327551,0.459186 0,1.283323 -4.62486,1.239751 -7.065741,-0.06657 -1.063843,-0.569351 -1.94184,-1.806851 -1.951106,-2.75 -0.0112,-1.140215 -0.714266,-0.625806 -2.098201,1.535185 -1.980503,3.092522 -2.884952,3.933745 -2.884952,2.683278 z m 18.557637,-0.340019 c -0.308218,-0.498708 0.340224,-0.671224 1.440983,-0.383369 2.334987,0.610613 2.630147,1.29011 0.560397,1.29011 -0.792541,0 -1.693162,-0.408034 -2.00138,-0.906741 z m 1.942363,-8.628447 c -2.512475,-1.210159 -2.59373,-1.347073 -0.5,-0.842502 1.375,0.331364 2.9275,1.001902 3.45,1.490085 1.296156,1.211026 0.584345,1.05477 -2.95,-0.647583 z M 70.414607,63.279183 c 0.542816,-7.005054 0.984396,-7.60312 1.107522,-1.5 0.0638,3.1625 -0.233391,5.75 -0.660425,5.75 -0.427034,0 -0.628228,-1.9125 -0.447097,-4.25 z m 15.723523,-1.75 c -0.339919,-0.55 -0.168034,-1 0.381966,-1 0.55,0 1.278115,0.45 1.618034,1 0.339919,0.55 0.168034,1 -0.381966,1 -0.55,0 -1.278115,-0.45 -1.618034,-1 z m -8.5,-1.059017 c 0,-0.582459 0.45,-0.780902 1,-0.440983 0.55,0.339919 1,0.816476 1,1.059017 0,0.242541 -0.45,0.440983 -1,0.440983 -0.55,0 -1,-0.476558 -1,-1.059017 z M 90.9599,59.203105 c -1.748027,-0.645657 -3.548027,-1.567324 -4,-2.04815 -0.933298,-0.992874 2.660998,-0.03335 7.17823,1.916283 3.7463,1.616899 1.135553,1.725221 -3.17823,0.131867 z m 8.11936,-1.124185 c -1.87477,-1.400684 -1.864211,-1.430883 0.30887,-0.883369 1.2375,0.311792 2.25,0.964411 2.25,1.450263 0,1.190041 -0.29464,1.124766 -2.55887,-0.566894 z M 35.717077,56.94585 c 0.04798,-1.164943 0.284941,-1.4019 0.604167,-0.604167 0.288871,0.721875 0.253344,1.584375 -0.07895,1.916667 -0.332292,0.332291 -0.56864,-0.258334 -0.525219,-1.3125 z m 46.220717,-4.416667 c 0,-3.025 0.187466,-4.2625 0.41659,-2.75 0.229125,1.5125 0.229125,3.9875 0,5.5 -0.229124,1.5125 -0.41659,0.275 -0.41659,-2.75 z m 27.700336,0.225684 c 0,-2.259208 0.40719,-4.359309 0.90487,-4.666893 0.51626,-0.319065 0.67191,1.266096 0.36242,3.690983 -0.71868,5.630908 -1.26729,6.05338 -1.26729,0.97591 z m -32,1.715299 c 0,-0.582459 0.45,-0.780902 1,-0.440983 0.55,0.339919 1,0.816476 1,1.059017 0,0.242541 -0.45,0.440983 -1,0.440983 -0.55,0 -1,-0.476558 -1,-1.059017 z m 13.5,0.05902 c -0.782182,-1.265597 0.541628,-1.265597 2.5,0 1.292687,0.835399 1.266292,0.971491 -0.190983,0.984687 -0.930041,0.0084 -1.969098,-0.434687 -2.309017,-0.984687 z m -54.35943,-1 c 0,-0.825 0.386744,-2.4 0.85943,-3.5 0.541715,-1.260639 0.85943,-1.445479 0.85943,-0.5 0,0.825 -0.386744,2.4 -0.85943,3.5 -0.541715,1.260639 -0.85943,1.445479 -0.85943,0.5 z M 98.368641,51.92636 c -0.331553,-0.331552 -0.181553,-1.710847 0.333333,-3.065099 0.514886,-1.354253 0.995297,-4.795482 1.067581,-7.647178 0.129029,-5.090375 0.146788,-5.057284 0.974085,1.8151 0.46347,3.85 0.64345,7.5625 0.39996,8.25 -0.472,1.332737 -1.783526,1.638611 -2.774959,0.647177 z M 58.717077,48.94585 c 0.04798,-1.164943 0.284941,-1.4019 0.604167,-0.604167 0.288871,0.721875 0.253344,1.584375 -0.07895,1.916667 -0.332292,0.332291 -0.568641,-0.258334 -0.52522,-1.3125 z m 29.362183,0.02817 c -1.830306,-1.466381 -1.798398,-1.487194 0.55887,-0.364549 3.061032,1.457812 3.628339,1.919712 2.357796,1.919712 -0.536545,0 -1.849045,-0.699825 -2.916666,-1.555166 z m 3.211072,-1.060264 c -2.666288,-1.387269 -4.617329,-2.752776 -4.335646,-3.034459 0.281683,-0.281683 1.459992,-0.0049 2.618464,0.615113 1.158473,0.619995 2.547013,0.854897 3.085647,0.522003 0.538633,-0.332896 0.979333,-0.06582 0.979333,0.59351 0,0.659326 0.7875,1.796572 1.75,2.527214 2.608109,1.979836 1.319016,1.594982 -4.097798,-1.223384 z m -35.99649,-0.929754 c 0.304622,-0.793831 0.956704,-1.194356 1.449073,-0.890055 1.240103,0.766426 1.125958,1.132717 -0.553857,1.777323 -0.966605,0.370921 -1.264666,0.0755 -0.895216,-0.887268 z m 16.502183,-0.454819 c 0,-1.375 0.226973,-1.9375 0.504386,-1.25 0.277412,0.6875 0.277412,1.8125 0,2.5 -0.277413,0.6875 -0.504386,0.125 -0.504386,-1.25 z M 50.18813,45.641578 c 0.5225,-0.488183 2.075,-1.181955 3.45,-1.541716 l 2.5,-0.654109 -2.5,1.506279 c -2.786208,1.678724 -4.977462,2.116686 -3.45,0.689546 z m 24.647568,-0.223199 c 0.271164,-0.824232 2.052331,-1.464755 4.379732,-1.574988 3.721427,-0.176259 3.764292,-0.145965 0.83541,0.590423 -1.69801,0.426918 -3.66889,1.135663 -4.379732,1.574988 -0.864373,0.534211 -1.141069,0.338658 -0.83541,-0.590423 z M 74.07926,41.99738 c 1.067621,-0.807509 2.867621,-1.450583 4,-1.429055 1.518381,0.02887 1.17555,0.422642 -1.30594,1.5 -4.239146,1.840458 -5.188122,1.815468 -2.69406,-0.07094 z m 35.93206,-4.715413 c 0.13509,-4.119767 0.74675,-7.235065 1.57073,-8 1.09654,-1.017965 1.19329,-0.979778 0.51614,0.20373 -0.45835,0.801083 -1.16518,4.401083 -1.57073,8 l -0.73738,6.543486 0.22124,-6.747216 z m -24.927032,4.160098 c -0.369532,-0.597915 -1.521089,-0.865044 -2.559017,-0.59362 -1.037928,0.271424 -1.887141,0.08563 -1.887141,-0.412882 0,-1.461744 4.009262,-1.039976 5.642857,0.59362 0.825,0.825 1.044415,1.5 0.487589,1.5 -0.556827,0 -1.314756,-0.489203 -1.684288,-1.087118 z M 54.833079,39.029183 c 0.02038,-1.65 0.244498,-2.203936 0.498042,-1.230968 0.253543,0.972967 0.236869,2.322967 -0.03705,3 -0.273927,0.677032 -0.481372,-0.119032 -0.460992,-1.769032 z m 38.820364,-0.08333 c 0.0084,-1.05417 0.472091,-2.59167 1.030377,-3.41667 0.741306,-1.095458 0.834084,-0.690916 0.34401,1.5 -0.822471,3.676928 -1.394827,4.475114 -1.374387,1.916667 z M 42.80577,35.478136 c 0.58498,-1.678075 1.249161,-2.865485 1.475958,-2.638688 0.495211,0.49521 -1.391729,5.689735 -2.066828,5.689735 -0.260002,0 0.0059,-1.372971 0.59087,-3.051047 z m 57.42421,-5.448953 c 3.34787,-3.130543 12.46005,-8.908037 15.90815,-10.086424 1.1,-0.375924 -1.81672,1.646706 -6.48161,4.494734 -4.66488,2.848028 -9.41608,5.946261 -10.558212,6.884962 -1.142131,0.9387 -0.632881,0.356728 1.131672,-1.293272 z m -32.59185,0.5 c -1.925,-1.053893 -4.753332,-1.935031 -6.285183,-1.958084 -1.531851,-0.02305 -3.894351,-0.76867 -5.25,-1.656926 -2.301776,-1.508181 -2.464817,-1.497157 -2.464817,0.166667 0,0.979922 -0.266088,1.515589 -0.591306,1.19037 -0.325219,-0.325218 -0.282681,-1.563698 0.09453,-2.752177 l 0.685834,-2.16087 2.219924,2.08551 c 2.649194,2.488789 4.781226,2.74475 3.908006,0.469176 -0.52831,-1.376752 -0.30132,-1.44565 1.531385,-0.464816 1.658474,0.88759 2.151627,0.870447 2.151627,-0.0748 0,-0.820635 0.413514,-0.72897 1.25,0.277093 0.6875,0.826873 2.4875,2.028234 4,2.669691 2.285921,0.969467 2.75,0.916768 2.75,-0.312277 0,-1.634683 1.770988,-1.909984 3.84217,-0.597267 1.119437,0.7095 1.121005,1.204809 0.0095,2.984687 -1.624559,2.601257 -3.293088,2.629737 -7.85167,0.134019 z M 45.717077,25.94585 c 0.04798,-1.164943 0.284941,-1.4019 0.604167,-0.604167 0.288871,0.721875 0.253344,1.584375 -0.07895,1.916667 -0.332292,0.332291 -0.568641,-0.258334 -0.52522,-1.3125 z m 1.50515,-5.775223 c 0.346434,-0.902794 1.529881,-1.641444 2.629881,-1.641444 1.496394,0 1.829268,-0.440655 1.321964,-1.75 -1.207458,-3.116429 -2.043682,-9.6564961 -1.725754,-13.4970278 0.218741,-2.6423587 0.955771,-4.0856141 2.5,-4.8955092 2.121101,-1.1124445 2.134901,-1.0865338 0.439812,0.8257686 -2.50336,2.8241471 -2.328898,5.635279 0.297988,4.8015378 2.632817,-0.8356239 4.952012,1.1021893 4.952012,4.1376757 0,2.5169109 -1.48626,3.2329179 -2.340536,1.127555 -0.38169,-0.940676 -0.769712,-0.878811 -1.56802,0.25 -1.432621,2.0257299 -1.477328,-0.410452 -0.05626,-3.0657415 0.642315,-1.2001767 0.66789,-1.9342585 0.06739,-1.9342585 -1.359323,0 -2.356242,3.625394 -1.627926,5.9201149 1.36098,4.288068 1.395005,6.450575 0.139205,8.847356 -0.890709,1.699978 -1.558554,2.131017 -2.055626,1.326738 -0.569276,-0.921109 -1.061508,-0.921409 -2.170144,-0.0013 -1.163666,0.965758 -1.315169,0.880688 -0.803983,-0.451441 z m 17.415903,0.547916 c 0,-0.580022 0.9,-1.340234 2,-1.68936 1.1,-0.349126 2,-1.179323 2,-1.844881 0,-1.79883 -2.935347,-5.654779 -4.306704,-5.657399 -0.656313,-0.0013 -1.242034,-1.367501 -1.301603,-3.0361029 -0.126332,-3.538714 1.751474,-3.4938796 2.293034,0.05475 0.202349,1.325918 1.296792,3.3995119 2.432095,4.6079859 1.135303,1.208475 1.91096,2.971106 1.723683,3.916958 -0.384906,1.94398 -4.840505,5.301946 -4.840505,3.648049 z M 62.848703,-1.0716761 c -0.709184,-0.7695275 -0.848242,-1.3991408 -0.309017,-1.3991408 1.038441,0 2.541728,1.9022132 1.94858,2.4656719 -0.192575,0.1829353 -0.930378,-0.2970037 -1.639563,-1.0665311 z"
       id="path3095"
       inkscape:connector-curvature="0" />
    <path
       style="fill:#717171"
       d="m 93.63813,122.02918 c 0,-0.825 0.476558,-1.5 1.059017,-1.5 0.582459,0 0.776365,-0.45734 0.430902,-1.01631 -0.345464,-0.55897 -1.047021,-0.75742 -1.559017,-0.44098 -0.511996,0.31643 -0.930902,-0.12623 -0.930902,-0.98369 0,-2.0052 -2.410447,-1.99142 -5.497716,0.0314 -2.269767,1.48721 -2.770608,1.43169 -7.714816,-0.85527 -2.908108,-1.34511 -7.312468,-4.35546 -9.787468,-6.68964 l -4.5,-4.24395 5,3.96081 c 4.325294,3.42634 10.540972,7.23763 11.803548,7.23763 0.221577,0 0.1891,-2.22472 -0.07217,-4.94382 -0.652366,-6.78929 0.46477,-11.84324 3.228836,-14.607297 1.280216,-1.280218 2.075393,-2.579941 1.76706,-2.888274 -1.154727,-1.154727 4.871891,-0.503209 9.322552,1.00783 6.093784,2.068894 13.454434,2.657964 13.925324,1.114438 0.19847,-0.650581 0.63437,-5.980351 0.96866,-11.843935 l 0.60781,-10.661061 -5.27581,-1.66654 c -2.9017,-0.916597 -5.84502,-1.84507 -6.540712,-2.063273 -0.829795,-0.260263 -1.130069,0.368406 -0.872928,1.827601 0.663996,3.767973 -1.019844,6.724334 -3.829946,6.724334 -2.400047,0 -2.532224,-0.284632 -2.532224,-5.452947 0,-2.999121 0.505256,-6.561862 1.12279,-7.917203 1.196915,-2.626941 3.334928,-2.723595 11.87721,-0.536936 7.49798,1.919337 7.47624,1.941148 8.82315,-8.851445 0.66983,-5.367192 2.33364,-14.696483 3.69736,-20.731758 2.7802,-12.304058 3.05537,-16.08639 1.22949,-16.900136 -0.6875,-0.306401 -0.17174,-0.456401 1.14613,-0.333334 1.44481,0.134921 3.89253,2.010384 6.16512,4.723759 l 3.76898,4.5 -1.42774,7.5 c -0.78526,4.125 -3.51411,16.725 -6.06412,28 -5.65579,25.007368 -6.19926,28.029761 -6.29354,35 -0.0733,5.418667 -1.9229,14.918897 -3.93484,20.210697 l -1.02868,2.70565 -5.29066,-1.55175 c -2.90986,-0.85346 -6.769241,-2.24354 -8.576407,-3.08908 -3.379081,-1.581 -4.949334,-1.27394 -3.713228,0.72612 0.385708,0.62409 1.330768,0.89315 2.100136,0.59792 0.906531,-0.34787 1.398849,0.15605 1.398849,1.43182 0,1.11634 -0.674952,1.96862 -1.559017,1.96862 -0.857459,0 -1.280902,0.45 -0.940983,1 0.339919,0.55 0.141476,1 -0.440983,1 -0.582459,0 -1.059017,-0.675 -1.059017,-1.5 z m -29,-24.396037 c 0,-1.745959 -1.167544,-1.948111 -14.75,-2.553864 -8.1125,-0.361803 -15.65,-1.093762 -16.75,-1.626576 -1.404629,-0.680369 0.0838,-0.818783 5,-0.46497 3.85,0.277081 11.6125,0.804902 17.25,1.172936 9.901947,0.646431 10.25,0.74894 10.25,3.018833 0,1.292321 -0.225,2.349681 -0.5,2.349681 -0.275,0 -0.5,-0.85322 -0.5,-1.89604 z m 4.507079,-8.092506 c -0.350339,-0.56686 0.05106,-0.734507 0.940983,-0.393011 1.732417,0.664791 2.049387,1.381557 0.610955,1.381557 -0.517541,0 -1.215913,-0.444846 -1.551938,-0.988546 z M 85.63813,88.529183 c -1.333333,-0.861666 -1.333333,-0.969374 0,-0.969374 0.825,0 2.175,0.436218 3,0.969374 1.333333,0.861666 1.333333,0.969374 0,0.969374 -0.825,0 -2.175,-0.436218 -3,-0.969374 z m -6.262243,-3.751618 c -0.969234,-0.21986 -1.505176,-0.815689 -1.190983,-1.324064 0.749092,-1.212057 4.453226,-1.198195 4.453226,0.01667 0,1.305357 -1.182345,1.779202 -3.262243,1.307399 z m -26.18398,-3.16137 C 52.881565,81.114052 50.717508,80.40618 48.38289,80.043145 42.795988,79.174378 40.375271,78.458709 40.979576,77.854404 41.250268,77.583712 40.41916,75.2623 39.132669,72.69571 c -3.505988,-6.994558 -3.79,-9.300585 -1.482155,-12.034285 1.663447,-1.970393 2.255418,-2.154875 3.527352,-1.099264 1.153486,0.957309 2.072046,0.997193 3.744353,0.162582 5.175981,-2.583216 10.000361,-4.137794 10.973849,-3.536146 0.575008,0.355375 1.652203,-0.183621 2.393766,-1.197768 0.741563,-1.014148 1.348296,-1.338221 1.348296,-0.720163 0,0.618058 0.898954,1.409059 1.997676,1.757779 3.045416,0.966578 3.45324,4.696545 1.032349,9.441884 -1.170785,2.294928 -1.885802,4.937901 -1.588926,5.873272 0.361363,1.138556 -0.642758,2.64424 -3.037935,4.555397 -2.483457,1.981598 -3.426724,3.432089 -3.084056,4.742453 0.504672,1.929869 -0.747667,2.62136 -1.765331,0.974744 z M 76.464242,79.805252 C 74.443603,79.592004 72.31231,78.84152 71.728033,78.13751 c -0.854132,-1.029167 0.747742,-1.015016 8.173889,0.07221 5.079914,0.743725 9.686208,1.534329 10.236208,1.756898 1.216253,0.492184 -8.576177,0.376624 -13.673888,-0.161364 z M 76.63813,75.14576 c 0,-0.210882 1.125,-0.59848 2.5,-0.861328 1.375,-0.262848 2.5,-0.09031 2.5,0.383423 0,0.47373 -1.125,0.861328 -2.5,0.861328 -1.375,0 -2.5,-0.17254 -2.5,-0.383423 z m -3.541119,-1.683108 c -1.07627,-1.741443 0.149522,-2.110241 1.521063,-0.457635 0.788749,0.950384 0.864611,1.524166 0.201518,1.524166 -0.584886,0 -1.360047,-0.479939 -1.722581,-1.066531 z m -2.488687,-1.877775 c 0.572308,-1.069369 1.534818,-2.249775 2.13891,-2.623124 0.604092,-0.373349 0.324918,0.501588 -0.620387,1.944306 -2.001622,3.054861 -3.038114,3.518198 -1.518523,0.678818 z m -7.236861,-2.179782 c 0.678334,-0.683418 1.485241,-0.990671 1.793128,-0.682784 0.307888,0.307887 -0.247112,0.867048 -1.233333,1.242579 -1.425198,0.542685 -1.540062,0.427821 -0.559795,-0.559795 z m 6.766667,-2.875912 c 0.339919,-0.55 0.816476,-1 1.059017,-1 0.242541,0 0.440983,0.45 0.440983,1 0,0.55 -0.476558,1 -1.059017,1 -0.582459,0 -0.780902,-0.45 -0.440983,-1 z m 22.5,-7 c -0.825,-0.533156 -1.05,-0.969374 -0.5,-0.969374 0.55,0 1.675,0.436218 2.5,0.969374 0.825,0.533156 1.05,0.969374 0.5,0.969374 -0.55,0 -1.675,-0.436218 -2.5,-0.969374 z M 35.717077,56.94585 c 0.04798,-1.164943 0.284941,-1.4019 0.604167,-0.604167 0.288871,0.721875 0.253344,1.584375 -0.07895,1.916667 -0.332292,0.332291 -0.56864,-0.258334 -0.525219,-1.3125 z m 51.921053,0.583333 c -0.825,-0.533156 -1.05,-0.969374 -0.5,-0.969374 0.55,0 1.675,0.436218 2.5,0.969374 0.825,0.533156 1.05,0.969374 0.5,0.969374 -0.55,0 -1.675,-0.436218 -2.5,-0.969374 z m -5.842105,-2 c 0,-1.375 0.226973,-1.9375 0.504386,-1.25 0.277412,0.6875 0.277412,1.8125 0,2.5 -0.277413,0.6875 -0.504386,0.125 -0.504386,-1.25 z M 77.63813,54.470166 c 0,-0.582459 0.45,-0.780902 1,-0.440983 0.55,0.339919 1,0.816476 1,1.059017 0,0.242541 -0.45,0.440983 -1,0.440983 -0.55,0 -1,-0.476558 -1,-1.059017 z m 14,0.05902 c -0.825,-0.533156 -1.05,-0.969374 -0.5,-0.969374 0.55,0 1.675,0.436218 2.5,0.969374 0.825,0.533156 1.05,0.969374 0.5,0.969374 -0.55,0 -1.675,-0.436218 -2.5,-0.969374 z m -54.914402,-1 c -0.03024,-0.825 0.381246,-2.175 0.914402,-3 1.181322,-1.827966 1.181322,-0.249085 0,2.5 -0.566682,1.31874 -0.878155,1.489055 -0.914402,0.5 z m 61.454105,-1.935759 c -0.404522,-0.654531 0.02575,-0.790316 1.158359,-0.365556 1.441938,0.540768 1.587898,0.388641 0.730588,-0.761454 -0.676874,-0.908028 -0.825074,-3.830596 -0.402491,-7.937231 l 0.668871,-6.5 0.33998,5.25 c 0.58894,9.094173 0.49545,10.57318 -0.693369,10.969453 -0.637098,0.212366 -1.44797,-0.08248 -1.801938,-0.655212 z M 109.65344,50.3382 c -0.008,-0.930041 0.43469,-1.969098 0.98469,-2.309017 1.2656,-0.782182 1.2656,0.541628 0,2.5 -0.8354,1.292687 -0.97149,1.266292 -0.98469,-0.190983 z M 58.717077,48.94585 c 0.04798,-1.164943 0.284941,-1.4019 0.604167,-0.604167 0.288871,0.721875 0.253344,1.584375 -0.07895,1.916667 -0.332292,0.332291 -0.568641,-0.258334 -0.52522,-1.3125 z M 89.13813,46.529183 c -1.65,-1.092752 -2.55,-1.975475 -2,-1.961607 0.55,0.01387 1.873463,0.685869 2.941029,1.493337 1.524062,1.152745 2.11152,1.199617 2.734687,0.218196 0.566306,-0.891871 0.798045,-0.748619 0.808971,0.500074 0.01961,2.24115 -0.791445,2.195938 -4.484687,-0.25 z m -33.5,-0.05902 c 0,-0.582459 0.45,-0.780902 1,-0.440983 0.55,0.339919 1,0.816476 1,1.059017 0,0.242541 -0.45,0.440983 -1,0.440983 -0.55,0 -1,-0.476558 -1,-1.059017 z m -6,-0.517753 c 0,-0.675099 5.194525,-2.562039 5.689735,-2.066828 0.226797,0.226797 -0.960613,0.890978 -2.638688,1.475958 -1.678076,0.584981 -3.051047,0.850872 -3.051047,0.59087 z m 25,-0.204178 c 0,-1.408378 4.094821,-2.589153 6.670905,-1.92361 1.104357,0.285316 0.620601,0.518518 -1.220905,0.588557 -1.6775,0.0638 -3.59,0.656001 -4.25,1.316001 -0.911823,0.911823 -1.2,0.916398 -1.2,0.01905 z m -1.45,-3.148289 c 0.5225,-0.511081 2.3,-1.20835 3.95,-1.549488 2.989593,-0.618099 2.988328,-0.614876 -0.36481,0.929237 -3.8388,1.76776 -4.955923,1.961026 -3.58519,0.620251 z m 11.9,-0.973698 c -0.5225,-0.496615 -1.85,-1.119414 -2.95,-1.383999 -1.758677,-0.423017 -1.719893,-0.49506 0.321429,-0.597065 1.276785,-0.0638 2.996428,0.558999 3.821428,1.383999 1.580602,1.580602 0.441712,2.150654 -1.192857,0.597065 z m 24.84966,-4.097065 c 0,-3.025 0.18747,-4.2625 0.41659,-2.75 0.22913,1.5125 0.22913,3.9875 0,5.5 -0.22912,1.5125 -0.41659,0.275 -0.41659,-2.75 z m -16.214062,1 c -0.03023,-0.825 0.381246,-2.175 0.914402,-3 1.181322,-1.827966 1.181322,-0.249085 0,2.5 -0.566682,1.31874 -0.878155,1.489055 -0.914402,0.5 z M 42.63813,35.5882 c 0,-0.517541 0.444846,-1.215913 0.988546,-1.551938 0.56686,-0.350339 0.734507,0.05106 0.393011,0.940983 -0.664791,1.732417 -1.381557,2.049387 -1.381557,0.610955 z m 25.5,-5.126851 c -1.65,-1.0569 -4.575,-1.959532 -6.5,-2.005849 -1.925,-0.04632 -2.934696,-0.31212 -2.243769,-0.590675 0.690926,-0.278554 1.016407,-0.894505 0.72329,-1.368778 -0.293118,-0.474274 0.379078,-0.686678 1.493769,-0.472008 1.116209,0.214962 2.033589,-0.14546 2.042023,-0.802274 0.01064,-0.828292 0.270154,-0.7907 0.849589,0.123065 0.720506,1.136233 5.637156,4.184353 6.749405,4.184353 0.212131,0 0.385693,-0.675 0.385693,-1.5 0,-1.653587 1.761744,-1.937282 3.84217,-0.618706 1.119437,0.7095 1.121005,1.204809 0.0095,2.984687 -1.614186,2.584723 -3.394734,2.600752 -7.351623,0.06619 z m 42.5,0.126851 c 0,-0.517541 0.44485,-1.215913 0.98855,-1.551938 0.56686,-0.350339 0.7345,0.05106 0.39301,0.940983 -0.66479,1.732417 -1.38156,2.049387 -1.38156,0.610955 z M 52.668756,27.029183 c 0,-0.55 0.363739,-1.573135 0.808311,-2.273634 0.609413,-0.960238 1.282324,-0.718413 2.734687,0.982767 1.700635,1.991987 1.712373,2.090179 0.100161,0.837936 -1.57819,-1.225818 -1.949599,-1.223477 -2.734688,0.01723 -0.499659,0.789637 -0.908471,0.985701 -0.908471,0.435701 z m 53.469374,-1.556085 c 3.69801,-2.518232 10.14967,-5.943915 11.19429,-5.943915 0.42568,0 -2.30629,1.8 -6.07105,4 -7.29825,4.264852 -10.08338,5.321615 -5.12324,1.943915 z M 49.197,19.951138 c -1.882836,-1.379253 -1.871826,-1.421955 0.366632,-1.421955 1.932266,0 2.194802,-0.366096 1.613525,-2.25 -2.517237,-8.1582969 -2.392759,-16.2114321 0.266224,-17.2234585 1.358598,-0.5170915 1.446814,-0.3952634 0.444749,0.6142129 -0.6875,0.6925852 -1.25,2.0995702 -1.25,3.1266334 0,1.4268981 0.48309,1.7140607 2.047988,1.2173816 2.67074,-0.8476601 4.952012,1.1148738 4.952012,4.2601197 0,2.0754159 -0.247311,2.2947499 -1.456195,1.291466 -0.800907,-0.664694 -1.925907,-0.918237 -2.5,-0.563428 -1.32515,0.818988 -1.328179,-0.07305 -0.0086,-2.5386685 0.642294,-1.2001767 0.667869,-1.9342585 0.06737,-1.9342585 -1.45164,0 -2.33759,3.694645 -1.498705,6.2499999 0.859659,2.618636 0.662147,7.455328 -0.380086,9.307599 -0.581803,1.033988 -1.104552,1.00738 -2.66491,-0.135644 z m 15.44113,0.761613 c 0,-0.474396 1.125,-1.375122 2.5,-2.001614 1.375,-0.626492 2.5,-0.975478 2.5,-0.775525 0,0.199953 -1.125,1.100679 -2.5,2.001614 -1.375,0.900935 -2.5,1.249921 -2.5,0.775525 z m 2.167362,-7.323296 c -1.28295,-1.581888 -2.63295,-2.691822 -3,-2.46652 -0.367049,0.225302 -0.7161,-0.91237 -0.775669,-2.5281589 -0.127873,-3.468508 1.759632,-3.3444003 2.293034,0.150772 0.202349,1.325918 1.332839,3.4378819 2.5122,4.6932539 1.179361,1.255372 1.955018,2.449967 1.723683,2.654654 -0.231336,0.204688 -1.470297,-0.922112 -2.753248,-2.504001 z"
       id="path3093"
       inkscape:connector-curvature="0" />
    <path
       style="fill:#4d4d4d"
       d="m 94.097011,122.46265 c -0.362533,-0.58659 -0.444683,-1.281 -0.182555,-1.54313 0.262128,-0.26213 0.743066,0.21781 1.068751,1.06653 0.676184,1.76211 0.09985,2.07206 -0.886196,0.4766 z m 1.996623,-1.86147 c 0.315446,-0.51041 -0.332997,-1.21573 -1.440983,-1.56739 -1.107987,-0.35166 -2.014521,-1.11416 -2.014521,-1.69444 0,-0.66981 0.531717,-0.61377 1.456195,0.15348 1.625132,1.34873 3.930059,0.47034 2.945596,-1.12256 -0.802181,-1.29795 -7.130932,-0.18977 -10.196941,1.78552 -2.084788,1.34314 -2.772201,1.25797 -7.5,-0.92924 -2.862668,-1.32435 -7.22985,-4.31768 -9.70485,-6.65186 l -4.5,-4.24395 5,3.96081 c 4.325294,3.42634 10.540972,7.23763 11.803548,7.23763 0.221577,0 0.1891,-2.22472 -0.07217,-4.94382 -0.678077,-7.05688 0.467647,-11.75944 3.685392,-15.126499 3.223915,-3.373518 4.304168,-3.509956 10.672286,-1.347923 6.459654,2.193105 13.359264,2.781275 13.855394,1.181115 0.21536,-0.694578 0.66497,-6.058755 0.99913,-11.920393 l 0.60758,-10.657523 -4.27558,-1.537422 c -8.637527,-3.1059 -8.77558,-3.102702 -8.77558,0.203293 0,4.50515 -0.964354,6.149175 -3.606989,6.149175 -2.195131,0 -2.393011,-0.401114 -2.393011,-4.850777 0,-2.667927 0.48233,-6.234389 1.071844,-7.92547 0.992354,-2.846668 1.344624,-3.03383 4.75,-2.523678 2.022986,0.303059 6.119696,1.165482 9.103796,1.916496 2.98411,0.751013 5.49764,1.257018 5.58565,1.124454 0.088,-0.132564 0.71653,-4.741025 1.39674,-10.241025 0.6802,-5.5 2.32916,-14.804994 3.66435,-20.677763 2.71534,-11.943302 3.02226,-16.415628 1.17762,-17.159956 -0.95713,-0.386212 -0.94173,-0.522883 0.0657,-0.583334 2.34902,-0.140946 5.18764,1.943032 8.07401,5.92755 l 2.82698,3.902542 -1.77885,9.29548 c -0.97836,5.112515 -3.65854,17.170481 -5.95595,26.795481 -2.29741,9.625 -4.61257,21.775 -5.1448,27 -1.13751,11.167197 -3.25581,23.399267 -4.70747,27.183237 -0.97862,2.5509 -1.2168,2.63177 -4.82952,1.63967 -2.09008,-0.57395 -5.04328,-1.68338 -6.56266,-2.46539 -2.618616,-1.34776 -2.812683,-1.28992 -3.725254,1.11032 -0.529498,1.39269 -1.22542,2.53216 -1.546492,2.53216 -0.321072,0 -0.325676,-0.4176 -0.01023,-0.928 z M 64.63813,97.633143 c 0,-1.745959 -1.167544,-1.948111 -14.75,-2.553864 -8.1125,-0.361803 -15.65,-1.094032 -16.75,-1.627176 -1.40027,-0.678676 0.09906,-0.810863 5,-0.44082 3.85,0.290692 11.6125,0.819524 17.25,1.175182 9.906162,0.624959 10.25,0.725416 10.25,2.994685 0,1.291413 -0.225,2.348033 -0.5,2.348033 -0.275,0 -0.5,-0.85322 -0.5,-1.89604 z m 13.5,-14.10396 c 0.339919,-0.55 1.491476,-1 2.559017,-1 1.067541,0 1.940983,0.45 1.940983,1 0,0.55 -1.151558,1 -2.559017,1 -1.451367,0 -2.291506,-0.432842 -1.940983,-1 z m -25.5,-3 c 0,-0.55 -1.6875,-1.044856 -3.75,-1.09968 -4.577869,-0.121686 -7.689351,-1.063489 -7.930058,-2.40032 -0.09903,-0.55 -1.300148,-3.51806 -2.669146,-6.595689 -2.10517,-4.732607 -2.303961,-5.966531 -1.288839,-8 0.906701,-1.816283 2.048644,-2.423058 4.669146,-2.480965 1.907893,-0.04216 5.647049,-1.056093 8.309234,-2.253186 2.662185,-1.197092 5.317952,-1.881349 5.901704,-1.52057 0.583752,0.360778 1.6681,-0.173797 2.409663,-1.187944 0.741563,-1.014148 1.348296,-1.338221 1.348296,-0.720163 0,0.618058 0.851413,1.39397 1.892029,1.724248 2.883974,0.915338 3.229926,4.380013 0.963429,9.648629 -1.127011,2.619807 -1.796449,5.172102 -1.48764,5.671765 0.308809,0.499664 -0.997619,2.288793 -2.903173,3.975843 -1.905555,1.68705 -3.464645,3.780764 -3.464645,4.652698 0,0.871934 -0.45,1.585334 -1,1.585334 -0.55,0 -1,-0.45 -1,-1 z m 25.311357,-0.912774 c -2.853753,-0.347148 -5.553753,-1.014201 -6,-1.482341 -0.926374,-0.971822 11.174837,0.116142 15.395678,1.384155 2.726413,0.819061 2.709566,0.837748 -0.707035,0.784209 -1.925,-0.03017 -5.834889,-0.338875 -8.688643,-0.686023 z m -4.72726,-6.72867 c -0.526667,-1.372472 -0.380336,-1.434339 0.893011,-0.377555 1.735245,1.440126 1.91584,2.018999 0.629881,2.018999 -0.491156,0 -1.176458,-0.73865 -1.522892,-1.641444 z m 8.49485,-17.941889 c 0.04798,-1.164943 0.284941,-1.4019 0.604167,-0.604167 0.288871,0.721875 0.253344,1.584375 -0.07895,1.916667 -0.332292,0.332291 -0.568641,-0.258334 -0.52522,-1.3125 z m 18.421053,-4.416667 c -0.339919,-0.55 -0.141476,-1 0.44098,-1 0.58246,0 1.05902,0.45 1.05902,1 0,0.55 -0.19844,1 -0.44098,1 -0.24254,0 -0.7191,-0.45 -1.05902,-1 z m 9.57895,-0.583333 c 0.048,-1.164943 0.28494,-1.4019 0.60416,-0.604167 0.28888,0.721875 0.25335,1.584375 -0.079,1.916667 -0.33229,0.332291 -0.56864,-0.258334 -0.52522,-1.3125 z m -9.68079,-2.821471 c -0.296494,-0.772642 -0.381735,-2.910142 -0.189427,-4.75 0.306567,-2.933002 0.408547,-2.759903 0.827667,1.404804 0.49021,4.871249 0.30994,5.816119 -0.63824,3.345196 z M 55.63813,46.470166 c 0,-0.582459 0.45,-0.780902 1,-0.440983 0.55,0.339919 1,0.816476 1,1.059017 0,0.242541 -0.45,0.440983 -1,0.440983 -0.55,0 -1,-0.476558 -1,-1.059017 z m 33.507079,0.07047 c -0.350339,-0.56686 0.05106,-0.734507 0.940983,-0.393011 1.732417,0.664792 2.049387,1.381558 0.610955,1.381558 -0.517541,0 -1.215913,-0.444846 -1.551938,-0.988546 z M 74.63813,45.748235 c 0,-1.408378 4.094821,-2.589153 6.670905,-1.92361 1.104357,0.285316 0.620601,0.518518 -1.220905,0.588557 -1.6775,0.0638 -3.59,0.656001 -4.25,1.316001 -0.911823,0.911823 -1.2,0.916398 -1.2,0.01905 z m -22,-1.219052 c 0.825,-0.533156 1.95,-0.969374 2.5,-0.969374 0.55,0 0.325,0.436218 -0.5,0.969374 -0.825,0.533156 -1.95,0.969374 -2.5,0.969374 -0.55,0 -0.325,-0.436218 0.5,-0.969374 z m 20.76845,-2.16845 c 0.581102,-0.581102 1.646819,-0.859794 2.36826,-0.619313 0.748946,0.249648 0.295653,0.702941 -1.056551,1.05655 -1.663345,0.434974 -2.053777,0.304831 -1.311709,-0.437237 z m 36.51756,-4.33155 c 0.008,-2.75 0.20172,-3.756313 0.43157,-2.23625 0.22986,1.520062 0.22371,3.770062 -0.0136,5 -0.23736,1.229937 -0.42542,-0.01375 -0.41792,-2.76375 z m -41.28601,-7.5 c -1.925,-1.053893 -4.6625,-1.935031 -6.083333,-1.958084 -1.420834,-0.02305 -2.583334,-0.615993 -2.583334,-1.317642 0,-1.720736 3.458538,-1.437061 7.367007,0.604253 3.922278,2.048527 4.29966,2.063577 4.29966,0.171473 0,-1.653587 1.761744,-1.937282 3.84217,-0.618706 1.119437,0.7095 1.121005,1.204809 0.0095,2.984687 -1.612752,2.582352 -2.353186,2.596835 -6.85167,0.134019 z m -16,-3.901556 c 0,-1.038441 1.902213,-2.541728 2.465672,-1.94858 0.182935,0.192575 -0.297004,0.930378 -1.066531,1.639563 -0.769528,0.709184 -1.399141,0.848242 -1.399141,0.309017 z m 53,-0.528076 c 0,-0.275 0.9,-0.981666 2,-1.570368 1.1,-0.588702 2,-0.845368 2,-0.570368 0,0.275 -0.9,0.981666 -2,1.570368 -1.1,0.588702 -2,0.845368 -2,0.570368 z M 49.155441,19.557193 c -0.366505,-0.593018 -0.07046,-0.954005 0.658359,-0.802787 1.45218,0.301304 1.457851,-1.32669 0.02753,-7.904416 -0.499818,-2.2985569 -0.531901,-4.7735566 -0.07129,-5.5000002 0.460606,-0.7264437 0.844356,-0.9282066 0.852778,-0.448362 0.0084,0.4798446 0.71517,0.2916147 1.570552,-0.4182888 1.380589,-1.1457874 1.422701,-0.9998452 0.375001,1.2996054 -0.799067,1.7537617 -0.878859,3.5036547 -0.247062,5.4182886 1.631622,4.944563 -0.992945,11.871821 -3.165867,8.35596 z m 17.650051,-6.167738 c -1.28295,-1.581888 -2.63295,-2.691822 -3,-2.46652 -0.367049,0.225302 -0.719289,-0.9753939 -0.782755,-2.6682129 -0.106382,-2.8374809 -0.0088,-2.932023 1.25,-1.2105665 0.750966,1.0270075 1.365393,2.3147755 1.365393,2.8617055 0,0.5469309 0.976774,2.0341479 2.17061,3.3049279 1.193835,1.270779 1.981335,2.47798 1.75,2.682667 -0.231336,0.204688 -1.470297,-0.922112 -2.753248,-2.504001 z M 56.292888,9.2791831 c -1.436956,-3.8406137 -1.550292,-4.75 -0.591988,-4.75 1.333939,0 2.209383,2.4497861 1.676562,4.691587 -0.403938,1.6995349 -0.469236,1.7030519 -1.084574,0.05841 z M 52.63813,8.6472171 c 0,-0.55 0.45,-1.2781153 1,-1.618034 0.55,-0.3399187 1,-0.168034 1,0.381966 0,0.55 -0.45,1.278115 -1,1.618034 -0.55,0.339919 -1,0.168034 -1,-0.381966 z M 49.717077,1.8861719 c -0.04342,-1.1786562 0.659703,-2.4264576 1.562497,-2.7728922 1.227943,-0.4712061 1.387724,-0.3092236 0.634272,0.6430112 -0.553944,0.7000907 -1.257067,1.9478922 -1.562496,2.7728922 -0.379046,1.0238485 -0.580386,0.8197346 -0.634273,-0.6430112 z"
       id="path3091"
       inkscape:connector-curvature="0" />
    <path
       style="fill:#2f2f2f"
       d="m 103.63813,118.43245 c -3.025,-1.13095 -6.743303,-2.29877 -8.262895,-2.59516 -2.350625,-0.45848 -2.675096,-0.26055 -2.174495,1.3265 0.545264,1.72863 0.505911,1.7371 -0.536788,0.1154 -1.026053,-1.5958 -1.380753,-1.61783 -4.025845,-0.25 -4.67973,2.41998 -5.705445,1.94974 -6.440616,-2.95273 -1.308674,-8.72686 1.488592,-16.671139 6.483154,-18.412253 2.475924,-0.863112 4.250968,-0.707277 8.780385,0.77085 3.12241,1.018963 7.3646,1.921086 9.4271,2.004716 l 3.75,0.15206 0.175,-5.531324 c 0.2649,-8.372748 0.47382,-10.732123 1.26631,-14.300543 0.69467,-3.12796 0.53879,-3.351634 -3.60763,-5.176675 -2.38353,-1.049103 -5.57118,-2.214239 -7.08368,-2.589192 -2.595458,-0.643421 -2.75,-0.490189 -2.75,2.726676 0,3.835998 -1.472721,5.808408 -4.33691,5.808408 -1.771034,0 -1.892161,-0.557493 -1.414372,-6.509727 0.287396,-3.58035 1.023409,-7.113239 1.635584,-7.850865 1.139424,-1.372922 5.195481,-1.017305 14.587628,1.278979 2.18455,0.534103 4.06501,0.878003 4.17879,0.764223 0.11378,-0.11378 0.48333,-2.676414 0.82121,-5.694741 1.10615,-9.881198 2.71951,-18.65652 5.64431,-30.700276 1.52007,-6.259367 1.73503,-8.696979 0.90388,-10.25 -0.59977,-1.120676 -0.80813,-2.037593 -0.46303,-2.037593 2.25842,0 10.84261,9.544248 9.92279,11.032558 -0.24952,0.403734 -0.72139,2.418597 -1.0486,4.477472 -0.32721,2.058876 -0.76737,4.638842 -0.97813,5.733258 -0.64631,3.355992 -6.47113,28.67533 -9.03117,39.256712 -1.36225,5.630536 -2.4558,13.277098 -2.50272,17.5 -0.0997,8.972377 -3.69071,23.362007 -5.91926,23.719147 -0.825,0.13222 -3.975,-0.68493 -7,-1.81588 z m -39.5,-22.903267 c -0.339919,-0.55 -0.141476,-1 0.440983,-1 0.582459,0 1.059017,0.45 1.059017,1 0,0.55 -0.198442,1 -0.440983,1 -0.242541,0 -0.719098,-0.45 -1.059017,-1 z m -27.5,-2.018352 c -2.537785,-0.397104 -0.357547,-0.494522 5,-0.223411 5.225,0.264403 9.6875,0.651965 9.916667,0.861248 0.65246,0.59585 -9.922221,0.143677 -14.916667,-0.637837 z m 42,-9.981648 c 0,-0.55 0.648442,-1 1.440983,-1 0.792541,0 1.719098,0.45 2.059017,1 0.339919,0.55 -0.308524,1 -1.440983,1 -1.132459,0 -2.059017,-0.45 -2.059017,-1 z m -24.960858,-2.75 c -0.02334,-0.745355 -1.401684,-1.25 -3.414142,-1.25 -4.551179,0 -9.691326,-1.083665 -9.166684,-1.932554 0.23422,-0.378976 -0.849779,-3.361687 -2.408886,-6.628246 -2.634727,-5.520141 -2.731373,-6.139603 -1.369736,-8.779449 1.201878,-2.330116 1.914781,-2.727363 3.969201,-2.211737 1.644176,0.412662 4.376549,-0.228679 7.956096,-1.86745 2.998546,-1.372779 6.068583,-2.25932 6.822305,-1.97009 0.753721,0.28923 1.65699,0.06216 2.007264,-0.504591 0.965225,-1.561765 5.294367,0.74953 5.92568,3.163674 0.291361,1.114168 -0.383297,3.815476 -1.49924,6.002906 -1.115944,2.18743 -1.804473,4.835693 -1.530066,5.885029 0.336584,1.287099 -0.330242,2.451174 -2.049383,3.577598 -1.401569,0.918343 -3.145673,3.041134 -3.875787,4.717312 -0.730114,1.676179 -1.345094,2.485098 -1.366622,1.797598 z M 79.63813,79.606584 c -3.646282,-0.323903 -5.973689,-0.918693 -5.301206,-1.354771 1.119839,-0.726171 14.209719,0.85255 15.189065,1.831896 0.245011,0.245011 -0.417026,0.367804 -1.471192,0.272875 -1.054167,-0.09493 -4.841667,-0.432429 -8.416667,-0.75 z m 9.507079,-33.065947 c -0.350339,-0.56686 0.05106,-0.734507 0.940983,-0.393011 1.732417,0.664791 2.049387,1.381557 0.610955,1.381557 -0.517541,0 -1.215913,-0.444846 -1.551938,-0.988546 z M 78.907162,43.836192 c 0.972967,-0.253543 2.322967,-0.236869 3,0.03705 0.677032,0.273927 -0.119032,0.481372 -1.769032,0.460992 -1.65,-0.02038 -2.203936,-0.244498 -1.230968,-0.498042 z m 20.925917,-1.807009 c 0.02038,-1.65 0.244501,-2.203936 0.498041,-1.230968 0.25354,0.972967 0.23687,2.322967 -0.037,3 -0.27393,0.677032 -0.481371,-0.119032 -0.460991,-1.769032 z m 10.091061,-4 c 0.008,-2.75 0.20172,-3.756313 0.43157,-2.23625 0.22986,1.520062 0.22371,3.770062 -0.0136,5 -0.23736,1.229937 -0.42542,-0.01375 -0.41792,-2.76375 z M 67.63813,30.082962 c -2.475,-1.295715 -4.8375,-2.148823 -5.25,-1.895795 -0.4125,0.253027 -0.75,-0.01651 -0.75,-0.598967 0,-1.447057 1.413764,-1.330802 5.725666,0.470826 3.289586,1.374476 3.748751,1.373805 4.521271,-0.0066 0.657741,-1.175319 1.315004,-1.292858 2.796335,-0.500073 1.64043,0.877931 1.748378,1.337601 0.706064,3.00661 -1.541706,2.468653 -2.202113,2.428088 -7.749336,-0.476001 z M 49.145209,19.540637 c -0.350339,-0.56686 0.05106,-0.734507 0.940983,-0.393011 1.732417,0.664791 2.049387,1.381557 0.610955,1.381557 -0.517541,0 -1.215913,-0.444846 -1.551938,-0.988546 z m 1.670239,-4.761454 C 49.227733,9.5692341 48.908397,3.4661171 50.296121,4.8538405 c 0.361895,0.3618949 1.374395,0.099395 2.25,-0.5833333 1.344655,-1.0484565 1.419217,-1.0082654 0.479896,0.2586759 -2.264377,3.054157 -2.585069,7.1262209 -0.683622,8.6804719 0.987654,0.807314 1.215198,1.171767 0.505653,0.809897 -0.960419,-0.489818 -1.124369,0.0023 -0.641592,1.925842 0.999475,3.982223 -0.103965,3.057107 -1.391008,-1.166211 z M 63.683967,8.6148291 c -0.614301,-1.1478313 -0.69884,-2.085646 -0.18801,-2.085646 1.027762,0 2.446629,3.028877 1.746732,3.7287739 -0.243385,0.243385 -0.94481,-0.4960219 -1.558722,-1.6431279 z M 52.63813,8.5882001 c 0,-0.517541 0.444846,-1.2159127 0.988546,-1.5519378 0.56686,-0.3503388 0.734507,0.051058 0.393011,0.9409828 -0.664791,1.732417 -1.381557,2.0493869 -1.381557,0.610955 z m 3.29815,0.3095 C 56.283595,8.5503841 56.117762,7.4253846 55.567762,6.3977002 54.98027,5.2999609 54.95065,4.5291831 55.495957,4.5291831 c 0.922189,0 2.142173,2.3246103 2.142173,4.081787 0,0.505017 -0.525,0.918213 -1.166667,0.918213 -0.641666,0 -0.882499,-0.284167 -0.535183,-0.631483 z m -6.29815,-6.8095 c 0,-0.7925407 0.408034,-1.6931616 0.906741,-2.0013799 0.498708,-0.3082183 0.671224,0.340224 0.383369,1.440983 -0.610613,2.3349873 -1.29011,2.6301467 -1.29011,0.5603969 z"
       id="path3089"
       inkscape:connector-curvature="0" />
    <path
       style="fill:#010101"
       d="m 103.63813,118.36961 c -7.880789,-2.92682 -12.422827,-3.35811 -15.161772,-1.43967 -5.012089,3.5106 -6.252804,1.83422 -6.094819,-8.23495 0.115235,-7.34451 1.842478,-11.132987 5.40016,-11.844521 1.571037,-0.314207 2.856431,-0.940798 2.856431,-1.392425 0,-0.451626 2.545448,0.05462 5.65655,1.125 3.111103,1.070379 7.54472,1.946139 9.85247,1.946139 l 4.19593,0 0.6518,-8.25 c 0.3585,-4.5375 0.92273,-9.869496 1.25385,-11.84888 0.57538,-3.439541 0.4313,-3.666585 -3.25428,-5.12809 -2.12098,-0.841065 -5.31882,-1.844824 -7.10632,-2.230575 -3.024337,-0.652666 -3.25,-0.517697 -3.25,1.943831 0,3.35026 -1.664939,6.513714 -3.428195,6.513714 -2.676992,0 -3.293773,-4.858248 -1.413517,-11.13398 1.013016,-3.381147 1.53782,-3.86602 4.184395,-3.86602 1.66436,0 5.655387,0.737739 8.868957,1.63942 3.21357,0.901682 6.0442,1.438077 6.29028,1.19199 0.24609,-0.246087 1.11736,-5.219797 1.93615,-11.052689 0.81879,-5.832892 2.64727,-15.635988 4.0633,-21.784656 1.41602,-6.148668 2.30217,-12.037697 1.96922,-13.086731 -1.19926,-3.77853 2.6457,-1.483675 6.34428,3.786571 2.06519,2.942766 2.16192,3.689759 1.23024,9.5 -0.94171,5.872763 -5.18046,24.900903 -9.98111,44.806095 -1.12749,4.675 -2.07201,11.875 -2.09893,16 -0.0594,9.110867 -3.75016,24.381127 -5.96507,24.680387 -0.825,0.11146 -3.975,-0.71652 -7,-1.83996 z m 15,-51.840427 c -1.93876,-1.252922 -3,-1.252922 -3,0 0,0.55 1.0125,0.993109 2.25,0.984687 1.81944,-0.01238 1.96296,-0.200813 0.75,-0.984687 z M 41.907162,93.836192 c 0.972967,-0.253543 2.322967,-0.236869 3,0.03705 0.677032,0.273927 -0.119032,0.481372 -1.769032,0.460992 -1.65,-0.02038 -2.203936,-0.244498 -1.230968,-0.498042 z M 78.63813,83.529183 c 0,-0.55 0.423442,-1 0.940983,-1 0.517541,0 1.219098,0.45 1.559017,1 0.339919,0.55 -0.08352,1 -0.940983,1 -0.857459,0 -1.559017,-0.45 -1.559017,-1 z m -35.5,-5 c -1.65,-0.419854 -2.507097,-0.816612 -1.904661,-0.881685 0.618837,-0.06685 -0.142462,-2.572273 -1.75,-5.759236 -1.564936,-3.102507 -2.831027,-6.365007 -2.813536,-7.25 0.05809,-2.938931 2.384329,-4.943349 5.128281,-4.418809 1.420786,0.2716 3.99716,-0.237344 5.725277,-1.130988 4.405696,-2.278274 12.173088,-3.598369 14.342185,-2.437503 2.33044,1.247213 2.246036,5.0296 -0.220107,9.86364 -1.308393,2.564662 -1.63068,4.129397 -0.938625,4.55711 0.614548,0.379812 -0.708627,2.278558 -3.173829,4.55442 -4.434872,4.094252 -7.3797,4.688138 -14.394985,2.903051 z m 33.75,0.283746 c 1.5125,-0.229125 3.9875,-0.229125 5.5,0 1.5125,0.229124 0.275,0.41659 -2.75,0.41659 -3.025,0 -4.2625,-0.187466 -2.75,-0.41659 z m -9.75,-49.357298 c -3.3,-1.606117 -5.452767,-2.921615 -4.783927,-2.92333 0.66884,-0.0017 2.849043,0.775591 4.844896,1.727347 3.373908,1.608905 3.714009,1.613966 4.841486,0.07205 1.833896,-2.508002 4.152207,-0.707426 2.665606,2.070313 -0.626135,1.169946 -1.235096,2.092672 -1.353245,2.050503 -0.118149,-0.04217 -2.914816,-1.390767 -6.214816,-2.996883 z M 49.754131,9.8861721 c -0.07701,-2.7504019 0.36377,-4.3271166 1.311316,-4.6907242 1.139167,-0.4371395 1.251814,-0.0045 0.557982,2.1430112 -0.478134,1.479898 -1.068226,3.5907239 -1.311316,4.6907239 -0.243089,1.1 -0.494181,0.135645 -0.557982,-2.1430109 z"
       id="path3087"
       inkscape:connector-curvature="0" />
  </g>
</svg>
